<?xml version="1.0" encoding="utf-8" standalone="no"?>
<!DOCTYPE svg PUBLIC "-//W3C//DTD SVG 1.1//EN"
  "http://www.w3.org/Graphics/SVG/1.1/DTD/svg11.dtd">
<svg xmlns:xlink="http://www.w3.org/1999/xlink" width="576pt" height="576pt" viewBox="0 0 576 576" xmlns="http://www.w3.org/2000/svg" version="1.1">
 <metadata>
  <rdf:RDF xmlns:dc="http://purl.org/dc/elements/1.1/" xmlns:cc="http://creativecommons.org/ns#" xmlns:rdf="http://www.w3.org/1999/02/22-rdf-syntax-ns#">
   <cc:Work>
    <dc:type rdf:resource="http://purl.org/dc/dcmitype/StillImage"/>
    <dc:date>2025-11-10T12:40:13.235240</dc:date>
    <dc:format>image/svg+xml</dc:format>
    <dc:creator>
     <cc:Agent>
      <dc:title>Matplotlib v3.10.7, https://matplotlib.org/</dc:title>
     </cc:Agent>
    </dc:creator>
   </cc:Work>
  </rdf:RDF>
 </metadata>
 <defs>
  <style type="text/css">*{stroke-linejoin: round; stroke-linecap: butt}</style>
 </defs>
 <g id="figure_1">
  <g id="patch_1">
   <path d="M 0 576 
L 576 576 
L 576 0 
L 0 0 
z
" style="fill: #ffffff"/>
  </g>
  <g id="axes_1">
   <g id="patch_2">
    <path d="M 24.88 265.48 
L 282.6 265.48 
L 282.6 53.52 
L 24.88 53.52 
z
" style="fill: #ffffff"/>
   </g>
   <g id="patch_3">
    <path d="M 224.027273 265.48 
L 270.885455 265.48 
L 270.885455 73.140964 
L 224.027273 73.140964 
z
" clip-path="url(#pa876c57412)" style="fill: #ffcc00; stroke: #ffcc00; stroke-linejoin: miter"/>
   </g>
   <g id="patch_4">
    <path d="M 177.169091 265.48 
L 224.027273 265.48 
L 224.027273 199.382065 
L 177.169091 199.382065 
z
" clip-path="url(#pa876c57412)" style="fill: #ff9900; stroke: #ffcc00; stroke-linejoin: miter"/>
   </g>
   <g id="patch_5">
    <path d="M 130.310909 265.48 
L 177.169091 265.48 
L 177.169091 233.026509 
L 130.310909 233.026509 
z
" clip-path="url(#pa876c57412)" style="fill: #ff6600; stroke: #ffcc00; stroke-linejoin: miter"/>
   </g>
   <g id="patch_6">
    <path d="M 83.452727 265.48 
L 130.310909 265.48 
L 130.310909 252.677247 
L 83.452727 252.677247 
z
" clip-path="url(#pa876c57412)" style="fill: #ff3300; stroke: #ffcc00; stroke-linejoin: miter"/>
   </g>
   <g id="patch_7">
    <path d="M 36.594545 265.48 
L 83.452727 265.48 
L 83.452727 217.990718 
L 36.594545 217.990718 
z
" clip-path="url(#pa876c57412)" style="fill: #ff0000; stroke: #ffcc00; stroke-linejoin: miter"/>
   </g>
   <g id="matplotlib.axis_1">
    <g id="xtick_1">
     <g id="line2d_1">
      <defs>
       <path id="m3f8162045b" d="M 0 0 
L 0 3.5 
" style="stroke: #000000; stroke-width: 0.8"/>
      </defs>
      <g>
       <use xlink:href="#m3f8162045b" x="60.023636" y="265.48" style="stroke: #000000; stroke-width: 0.8"/>
      </g>
     </g>
     <g id="text_1">
      <!-- 1★ -->
      <g transform="translate(52.359574 280.078437) scale(0.1 -0.1)">
       <defs>
        <path id="DejaVuSans-31" d="M 794 531 
L 1825 531 
L 1825 4091 
L 703 3866 
L 703 4441 
L 1819 4666 
L 2450 4666 
L 2450 531 
L 3481 531 
L 3481 0 
L 794 0 
L 794 531 
z
" transform="scale(0.015625)"/>
        <path id="DejaVuSans-2605" d="M 416 2850 
L 2288 2850 
L 2869 4628 
L 3453 2850 
L 5322 2850 
L 3809 1747 
L 4391 -28 
L 2869 1072 
L 1350 -28 
L 1928 1747 
L 416 2850 
z
" transform="scale(0.015625)"/>
       </defs>
       <use xlink:href="#DejaVuSans-31"/>
       <use xlink:href="#DejaVuSans-2605" transform="translate(63.623047 0)"/>
      </g>
     </g>
    </g>
    <g id="xtick_2">
     <g id="line2d_2">
      <g>
       <use xlink:href="#m3f8162045b" x="106.881818" y="265.48" style="stroke: #000000; stroke-width: 0.8"/>
      </g>
     </g>
     <g id="text_2">
      <!-- 2★ -->
      <g transform="translate(99.217756 280.078437) scale(0.1 -0.1)">
       <defs>
        <path id="DejaVuSans-32" d="M 1228 531 
L 3431 531 
L 3431 0 
L 469 0 
L 469 531 
Q 828 903 1448 1529 
Q 2069 2156 2228 2338 
Q 2531 2678 2651 2914 
Q 2772 3150 2772 3378 
Q 2772 3750 2511 3984 
Q 2250 4219 1831 4219 
Q 1534 4219 1204 4116 
Q 875 4013 500 3803 
L 500 4441 
Q 881 4594 1212 4672 
Q 1544 4750 1819 4750 
Q 2544 4750 2975 4387 
Q 3406 4025 3406 3419 
Q 3406 3131 3298 2873 
Q 3191 2616 2906 2266 
Q 2828 2175 2409 1742 
Q 1991 1309 1228 531 
z
" transform="scale(0.015625)"/>
       </defs>
       <use xlink:href="#DejaVuSans-32"/>
       <use xlink:href="#DejaVuSans-2605" transform="translate(63.623047 0)"/>
      </g>
     </g>
    </g>
    <g id="xtick_3">
     <g id="line2d_3">
      <g>
       <use xlink:href="#m3f8162045b" x="153.74" y="265.48" style="stroke: #000000; stroke-width: 0.8"/>
      </g>
     </g>
     <g id="text_3">
      <!-- 3★ -->
      <g transform="translate(146.075937 280.078437) scale(0.1 -0.1)">
       <defs>
        <path id="DejaVuSans-33" d="M 2597 2516 
Q 3050 2419 3304 2112 
Q 3559 1806 3559 1356 
Q 3559 666 3084 287 
Q 2609 -91 1734 -91 
Q 1441 -91 1130 -33 
Q 819 25 488 141 
L 488 750 
Q 750 597 1062 519 
Q 1375 441 1716 441 
Q 2309 441 2620 675 
Q 2931 909 2931 1356 
Q 2931 1769 2642 2001 
Q 2353 2234 1838 2234 
L 1294 2234 
L 1294 2753 
L 1863 2753 
Q 2328 2753 2575 2939 
Q 2822 3125 2822 3475 
Q 2822 3834 2567 4026 
Q 2313 4219 1838 4219 
Q 1578 4219 1281 4162 
Q 984 4106 628 3988 
L 628 4550 
Q 988 4650 1302 4700 
Q 1616 4750 1894 4750 
Q 2613 4750 3031 4423 
Q 3450 4097 3450 3541 
Q 3450 3153 3228 2886 
Q 3006 2619 2597 2516 
z
" transform="scale(0.015625)"/>
       </defs>
       <use xlink:href="#DejaVuSans-33"/>
       <use xlink:href="#DejaVuSans-2605" transform="translate(63.623047 0)"/>
      </g>
     </g>
    </g>
    <g id="xtick_4">
     <g id="line2d_4">
      <g>
       <use xlink:href="#m3f8162045b" x="200.598182" y="265.48" style="stroke: #000000; stroke-width: 0.8"/>
      </g>
     </g>
     <g id="text_4">
      <!-- 4★ -->
      <g transform="translate(192.934119 280.078437) scale(0.1 -0.1)">
       <defs>
        <path id="DejaVuSans-34" d="M 2419 4116 
L 825 1625 
L 2419 1625 
L 2419 4116 
z
M 2253 4666 
L 3047 4666 
L 3047 1625 
L 3713 1625 
L 3713 1100 
L 3047 1100 
L 3047 0 
L 2419 0 
L 2419 1100 
L 313 1100 
L 313 1709 
L 2253 4666 
z
" transform="scale(0.015625)"/>
       </defs>
       <use xlink:href="#DejaVuSans-34"/>
       <use xlink:href="#DejaVuSans-2605" transform="translate(63.623047 0)"/>
      </g>
     </g>
    </g>
    <g id="xtick_5">
     <g id="line2d_5">
      <g>
       <use xlink:href="#m3f8162045b" x="247.456364" y="265.48" style="stroke: #000000; stroke-width: 0.8"/>
      </g>
     </g>
     <g id="text_5">
      <!-- 5★ -->
      <g transform="translate(239.792301 280.078437) scale(0.1 -0.1)">
       <defs>
        <path id="DejaVuSans-35" d="M 691 4666 
L 3169 4666 
L 3169 4134 
L 1269 4134 
L 1269 2991 
Q 1406 3038 1543 3061 
Q 1681 3084 1819 3084 
Q 2600 3084 3056 2656 
Q 3513 2228 3513 1497 
Q 3513 744 3044 326 
Q 2575 -91 1722 -91 
Q 1428 -91 1123 -41 
Q 819 9 494 109 
L 494 744 
Q 775 591 1075 516 
Q 1375 441 1709 441 
Q 2250 441 2565 725 
Q 2881 1009 2881 1497 
Q 2881 1984 2565 2268 
Q 2250 2553 1709 2553 
Q 1456 2553 1204 2497 
Q 953 2441 691 2322 
L 691 4666 
z
" transform="scale(0.015625)"/>
       </defs>
       <use xlink:href="#DejaVuSans-35"/>
       <use xlink:href="#DejaVuSans-2605" transform="translate(63.623047 0)"/>
      </g>
     </g>
    </g>
    <g id="text_6">
     <!-- Tienda 1 -->
     <g transform="translate(132.199375 293.756562) scale(0.1 -0.1)">
      <defs>
       <path id="DejaVuSans-54" d="M -19 4666 
L 3928 4666 
L 3928 4134 
L 2272 4134 
L 2272 0 
L 1638 0 
L 1638 4134 
L -19 4134 
L -19 4666 
z
" transform="scale(0.015625)"/>
       <path id="DejaVuSans-69" d="M 603 3500 
L 1178 3500 
L 1178 0 
L 603 0 
L 603 3500 
z
M 603 4863 
L 1178 4863 
L 1178 4134 
L 603 4134 
L 603 4863 
z
" transform="scale(0.015625)"/>
       <path id="DejaVuSans-65" d="M 3597 1894 
L 3597 1613 
L 953 1613 
Q 991 1019 1311 708 
Q 1631 397 2203 397 
Q 2534 397 2845 478 
Q 3156 559 3463 722 
L 3463 178 
Q 3153 47 2828 -22 
Q 2503 -91 2169 -91 
Q 1331 -91 842 396 
Q 353 884 353 1716 
Q 353 2575 817 3079 
Q 1281 3584 2069 3584 
Q 2775 3584 3186 3129 
Q 3597 2675 3597 1894 
z
M 3022 2063 
Q 3016 2534 2758 2815 
Q 2500 3097 2075 3097 
Q 1594 3097 1305 2825 
Q 1016 2553 972 2059 
L 3022 2063 
z
" transform="scale(0.015625)"/>
       <path id="DejaVuSans-6e" d="M 3513 2113 
L 3513 0 
L 2938 0 
L 2938 2094 
Q 2938 2591 2744 2837 
Q 2550 3084 2163 3084 
Q 1697 3084 1428 2787 
Q 1159 2491 1159 1978 
L 1159 0 
L 581 0 
L 581 3500 
L 1159 3500 
L 1159 2956 
Q 1366 3272 1645 3428 
Q 1925 3584 2291 3584 
Q 2894 3584 3203 3211 
Q 3513 2838 3513 2113 
z
" transform="scale(0.015625)"/>
       <path id="DejaVuSans-64" d="M 2906 2969 
L 2906 4863 
L 3481 4863 
L 3481 0 
L 2906 0 
L 2906 525 
Q 2725 213 2448 61 
Q 2172 -91 1784 -91 
Q 1150 -91 751 415 
Q 353 922 353 1747 
Q 353 2572 751 3078 
Q 1150 3584 1784 3584 
Q 2172 3584 2448 3432 
Q 2725 3281 2906 2969 
z
M 947 1747 
Q 947 1113 1208 752 
Q 1469 391 1925 391 
Q 2381 391 2643 752 
Q 2906 1113 2906 1747 
Q 2906 2381 2643 2742 
Q 2381 3103 1925 3103 
Q 1469 3103 1208 2742 
Q 947 2381 947 1747 
z
" transform="scale(0.015625)"/>
       <path id="DejaVuSans-61" d="M 2194 1759 
Q 1497 1759 1228 1600 
Q 959 1441 959 1056 
Q 959 750 1161 570 
Q 1363 391 1709 391 
Q 2188 391 2477 730 
Q 2766 1069 2766 1631 
L 2766 1759 
L 2194 1759 
z
M 3341 1997 
L 3341 0 
L 2766 0 
L 2766 531 
Q 2569 213 2275 61 
Q 1981 -91 1556 -91 
Q 1019 -91 701 211 
Q 384 513 384 1019 
Q 384 1609 779 1909 
Q 1175 2209 1959 2209 
L 2766 2209 
L 2766 2266 
Q 2766 2663 2505 2880 
Q 2244 3097 1772 3097 
Q 1472 3097 1187 3025 
Q 903 2953 641 2809 
L 641 3341 
Q 956 3463 1253 3523 
Q 1550 3584 1831 3584 
Q 2591 3584 2966 3190 
Q 3341 2797 3341 1997 
z
" transform="scale(0.015625)"/>
       <path id="DejaVuSans-20" transform="scale(0.015625)"/>
      </defs>
      <use xlink:href="#DejaVuSans-54"/>
      <use xlink:href="#DejaVuSans-69" transform="translate(57.958984 0)"/>
      <use xlink:href="#DejaVuSans-65" transform="translate(85.742188 0)"/>
      <use xlink:href="#DejaVuSans-6e" transform="translate(147.265625 0)"/>
      <use xlink:href="#DejaVuSans-64" transform="translate(210.644531 0)"/>
      <use xlink:href="#DejaVuSans-61" transform="translate(274.121094 0)"/>
      <use xlink:href="#DejaVuSans-20" transform="translate(335.400391 0)"/>
      <use xlink:href="#DejaVuSans-31" transform="translate(367.1875 0)"/>
     </g>
    </g>
   </g>
   <g id="matplotlib.axis_2">
    <g id="text_7">
     <!-- Calificaciones -->
     <g transform="translate(18.800313 193.84375) rotate(-90) scale(0.1 -0.1)">
      <defs>
       <path id="DejaVuSans-43" d="M 4122 4306 
L 4122 3641 
Q 3803 3938 3442 4084 
Q 3081 4231 2675 4231 
Q 1875 4231 1450 3742 
Q 1025 3253 1025 2328 
Q 1025 1406 1450 917 
Q 1875 428 2675 428 
Q 3081 428 3442 575 
Q 3803 722 4122 1019 
L 4122 359 
Q 3791 134 3420 21 
Q 3050 -91 2638 -91 
Q 1578 -91 968 557 
Q 359 1206 359 2328 
Q 359 3453 968 4101 
Q 1578 4750 2638 4750 
Q 3056 4750 3426 4639 
Q 3797 4528 4122 4306 
z
" transform="scale(0.015625)"/>
       <path id="DejaVuSans-6c" d="M 603 4863 
L 1178 4863 
L 1178 0 
L 603 0 
L 603 4863 
z
" transform="scale(0.015625)"/>
       <path id="DejaVuSans-66" d="M 2375 4863 
L 2375 4384 
L 1825 4384 
Q 1516 4384 1395 4259 
Q 1275 4134 1275 3809 
L 1275 3500 
L 2222 3500 
L 2222 3053 
L 1275 3053 
L 1275 0 
L 697 0 
L 697 3053 
L 147 3053 
L 147 3500 
L 697 3500 
L 697 3744 
Q 697 4328 969 4595 
Q 1241 4863 1831 4863 
L 2375 4863 
z
" transform="scale(0.015625)"/>
       <path id="DejaVuSans-63" d="M 3122 3366 
L 3122 2828 
Q 2878 2963 2633 3030 
Q 2388 3097 2138 3097 
Q 1578 3097 1268 2742 
Q 959 2388 959 1747 
Q 959 1106 1268 751 
Q 1578 397 2138 397 
Q 2388 397 2633 464 
Q 2878 531 3122 666 
L 3122 134 
Q 2881 22 2623 -34 
Q 2366 -91 2075 -91 
Q 1284 -91 818 406 
Q 353 903 353 1747 
Q 353 2603 823 3093 
Q 1294 3584 2113 3584 
Q 2378 3584 2631 3529 
Q 2884 3475 3122 3366 
z
" transform="scale(0.015625)"/>
       <path id="DejaVuSans-6f" d="M 1959 3097 
Q 1497 3097 1228 2736 
Q 959 2375 959 1747 
Q 959 1119 1226 758 
Q 1494 397 1959 397 
Q 2419 397 2687 759 
Q 2956 1122 2956 1747 
Q 2956 2369 2687 2733 
Q 2419 3097 1959 3097 
z
M 1959 3584 
Q 2709 3584 3137 3096 
Q 3566 2609 3566 1747 
Q 3566 888 3137 398 
Q 2709 -91 1959 -91 
Q 1206 -91 779 398 
Q 353 888 353 1747 
Q 353 2609 779 3096 
Q 1206 3584 1959 3584 
z
" transform="scale(0.015625)"/>
       <path id="DejaVuSans-73" d="M 2834 3397 
L 2834 2853 
Q 2591 2978 2328 3040 
Q 2066 3103 1784 3103 
Q 1356 3103 1142 2972 
Q 928 2841 928 2578 
Q 928 2378 1081 2264 
Q 1234 2150 1697 2047 
L 1894 2003 
Q 2506 1872 2764 1633 
Q 3022 1394 3022 966 
Q 3022 478 2636 193 
Q 2250 -91 1575 -91 
Q 1294 -91 989 -36 
Q 684 19 347 128 
L 347 722 
Q 666 556 975 473 
Q 1284 391 1588 391 
Q 1994 391 2212 530 
Q 2431 669 2431 922 
Q 2431 1156 2273 1281 
Q 2116 1406 1581 1522 
L 1381 1569 
Q 847 1681 609 1914 
Q 372 2147 372 2553 
Q 372 3047 722 3315 
Q 1072 3584 1716 3584 
Q 2034 3584 2315 3537 
Q 2597 3491 2834 3397 
z
" transform="scale(0.015625)"/>
      </defs>
      <use xlink:href="#DejaVuSans-43"/>
      <use xlink:href="#DejaVuSans-61" transform="translate(69.824219 0)"/>
      <use xlink:href="#DejaVuSans-6c" transform="translate(131.103516 0)"/>
      <use xlink:href="#DejaVuSans-69" transform="translate(158.886719 0)"/>
      <use xlink:href="#DejaVuSans-66" transform="translate(186.669922 0)"/>
      <use xlink:href="#DejaVuSans-69" transform="translate(221.875 0)"/>
      <use xlink:href="#DejaVuSans-63" transform="translate(249.658203 0)"/>
      <use xlink:href="#DejaVuSans-61" transform="translate(304.638672 0)"/>
      <use xlink:href="#DejaVuSans-63" transform="translate(365.917969 0)"/>
      <use xlink:href="#DejaVuSans-69" transform="translate(420.898438 0)"/>
      <use xlink:href="#DejaVuSans-6f" transform="translate(448.681641 0)"/>
      <use xlink:href="#DejaVuSans-6e" transform="translate(509.863281 0)"/>
      <use xlink:href="#DejaVuSans-65" transform="translate(573.242188 0)"/>
      <use xlink:href="#DejaVuSans-73" transform="translate(634.765625 0)"/>
     </g>
    </g>
   </g>
   <g id="patch_8">
    <path d="M 24.88 265.48 
L 282.6 265.48 
" style="fill: none; stroke: #000000; stroke-width: 0.8; stroke-linejoin: miter; stroke-linecap: square"/>
   </g>
   <g id="text_8">
    <!-- Promedio: 3.98★ -->
    <g transform="translate(102.874062 47.52) scale(0.12 -0.12)">
     <defs>
      <path id="DejaVuSans-50" d="M 1259 4147 
L 1259 2394 
L 2053 2394 
Q 2494 2394 2734 2622 
Q 2975 2850 2975 3272 
Q 2975 3691 2734 3919 
Q 2494 4147 2053 4147 
L 1259 4147 
z
M 628 4666 
L 2053 4666 
Q 2838 4666 3239 4311 
Q 3641 3956 3641 3272 
Q 3641 2581 3239 2228 
Q 2838 1875 2053 1875 
L 1259 1875 
L 1259 0 
L 628 0 
L 628 4666 
z
" transform="scale(0.015625)"/>
      <path id="DejaVuSans-72" d="M 2631 2963 
Q 2534 3019 2420 3045 
Q 2306 3072 2169 3072 
Q 1681 3072 1420 2755 
Q 1159 2438 1159 1844 
L 1159 0 
L 581 0 
L 581 3500 
L 1159 3500 
L 1159 2956 
Q 1341 3275 1631 3429 
Q 1922 3584 2338 3584 
Q 2397 3584 2469 3576 
Q 2541 3569 2628 3553 
L 2631 2963 
z
" transform="scale(0.015625)"/>
      <path id="DejaVuSans-6d" d="M 3328 2828 
Q 3544 3216 3844 3400 
Q 4144 3584 4550 3584 
Q 5097 3584 5394 3201 
Q 5691 2819 5691 2113 
L 5691 0 
L 5113 0 
L 5113 2094 
Q 5113 2597 4934 2840 
Q 4756 3084 4391 3084 
Q 3944 3084 3684 2787 
Q 3425 2491 3425 1978 
L 3425 0 
L 2847 0 
L 2847 2094 
Q 2847 2600 2669 2842 
Q 2491 3084 2119 3084 
Q 1678 3084 1418 2786 
Q 1159 2488 1159 1978 
L 1159 0 
L 581 0 
L 581 3500 
L 1159 3500 
L 1159 2956 
Q 1356 3278 1631 3431 
Q 1906 3584 2284 3584 
Q 2666 3584 2933 3390 
Q 3200 3197 3328 2828 
z
" transform="scale(0.015625)"/>
      <path id="DejaVuSans-3a" d="M 750 794 
L 1409 794 
L 1409 0 
L 750 0 
L 750 794 
z
M 750 3309 
L 1409 3309 
L 1409 2516 
L 750 2516 
L 750 3309 
z
" transform="scale(0.015625)"/>
      <path id="DejaVuSans-2e" d="M 684 794 
L 1344 794 
L 1344 0 
L 684 0 
L 684 794 
z
" transform="scale(0.015625)"/>
      <path id="DejaVuSans-39" d="M 703 97 
L 703 672 
Q 941 559 1184 500 
Q 1428 441 1663 441 
Q 2288 441 2617 861 
Q 2947 1281 2994 2138 
Q 2813 1869 2534 1725 
Q 2256 1581 1919 1581 
Q 1219 1581 811 2004 
Q 403 2428 403 3163 
Q 403 3881 828 4315 
Q 1253 4750 1959 4750 
Q 2769 4750 3195 4129 
Q 3622 3509 3622 2328 
Q 3622 1225 3098 567 
Q 2575 -91 1691 -91 
Q 1453 -91 1209 -44 
Q 966 3 703 97 
z
M 1959 2075 
Q 2384 2075 2632 2365 
Q 2881 2656 2881 3163 
Q 2881 3666 2632 3958 
Q 2384 4250 1959 4250 
Q 1534 4250 1286 3958 
Q 1038 3666 1038 3163 
Q 1038 2656 1286 2365 
Q 1534 2075 1959 2075 
z
" transform="scale(0.015625)"/>
      <path id="DejaVuSans-38" d="M 2034 2216 
Q 1584 2216 1326 1975 
Q 1069 1734 1069 1313 
Q 1069 891 1326 650 
Q 1584 409 2034 409 
Q 2484 409 2743 651 
Q 3003 894 3003 1313 
Q 3003 1734 2745 1975 
Q 2488 2216 2034 2216 
z
M 1403 2484 
Q 997 2584 770 2862 
Q 544 3141 544 3541 
Q 544 4100 942 4425 
Q 1341 4750 2034 4750 
Q 2731 4750 3128 4425 
Q 3525 4100 3525 3541 
Q 3525 3141 3298 2862 
Q 3072 2584 2669 2484 
Q 3125 2378 3379 2068 
Q 3634 1759 3634 1313 
Q 3634 634 3220 271 
Q 2806 -91 2034 -91 
Q 1263 -91 848 271 
Q 434 634 434 1313 
Q 434 1759 690 2068 
Q 947 2378 1403 2484 
z
M 1172 3481 
Q 1172 3119 1398 2916 
Q 1625 2713 2034 2713 
Q 2441 2713 2670 2916 
Q 2900 3119 2900 3481 
Q 2900 3844 2670 4047 
Q 2441 4250 2034 4250 
Q 1625 4250 1398 4047 
Q 1172 3844 1172 3481 
z
" transform="scale(0.015625)"/>
     </defs>
     <use xlink:href="#DejaVuSans-50"/>
     <use xlink:href="#DejaVuSans-72" transform="translate(58.552734 0)"/>
     <use xlink:href="#DejaVuSans-6f" transform="translate(97.416016 0)"/>
     <use xlink:href="#DejaVuSans-6d" transform="translate(158.597656 0)"/>
     <use xlink:href="#DejaVuSans-65" transform="translate(256.009766 0)"/>
     <use xlink:href="#DejaVuSans-64" transform="translate(317.533203 0)"/>
     <use xlink:href="#DejaVuSans-69" transform="translate(381.009766 0)"/>
     <use xlink:href="#DejaVuSans-6f" transform="translate(408.792969 0)"/>
     <use xlink:href="#DejaVuSans-3a" transform="translate(469.974609 0)"/>
     <use xlink:href="#DejaVuSans-20" transform="translate(503.666016 0)"/>
     <use xlink:href="#DejaVuSans-33" transform="translate(535.453125 0)"/>
     <use xlink:href="#DejaVuSans-2e" transform="translate(599.076172 0)"/>
     <use xlink:href="#DejaVuSans-39" transform="translate(630.863281 0)"/>
     <use xlink:href="#DejaVuSans-38" transform="translate(694.486328 0)"/>
     <use xlink:href="#DejaVuSans-2605" transform="translate(758.109375 0)"/>
    </g>
   </g>
  </g>
  <g id="axes_2">
   <g id="patch_9">
    <path d="M 307.48 265.48 
L 565.2 265.48 
L 565.2 53.52 
L 307.48 53.52 
z
" style="fill: #ffffff"/>
   </g>
   <g id="patch_10">
    <path d="M 506.627273 265.48 
L 553.485455 265.48 
L 553.485455 71.652271 
L 506.627273 71.652271 
z
" clip-path="url(#p833a66adae)" style="fill: #ffcc00; stroke: #ffcc00; stroke-linejoin: miter"/>
   </g>
   <g id="patch_11">
    <path d="M 459.769091 265.48 
L 506.627273 265.48 
L 506.627273 193.725034 
L 459.769091 193.725034 
z
" clip-path="url(#p833a66adae)" style="fill: #ff9900; stroke: #ffcc00; stroke-linejoin: miter"/>
   </g>
   <g id="patch_12">
    <path d="M 412.910909 265.48 
L 459.769091 265.48 
L 459.769091 234.366332 
L 412.910909 234.366332 
z
" clip-path="url(#p833a66adae)" style="fill: #ff6600; stroke: #ffcc00; stroke-linejoin: miter"/>
   </g>
   <g id="patch_13">
    <path d="M 366.052727 265.48 
L 412.910909 265.48 
L 412.910909 251.635162 
L 366.052727 251.635162 
z
" clip-path="url(#p833a66adae)" style="fill: #ff3300; stroke: #ffcc00; stroke-linejoin: miter"/>
   </g>
   <g id="patch_14">
    <path d="M 319.194545 265.48 
L 366.052727 265.48 
L 366.052727 224.838702 
L 319.194545 224.838702 
z
" clip-path="url(#p833a66adae)" style="fill: #ff0000; stroke: #ffcc00; stroke-linejoin: miter"/>
   </g>
   <g id="matplotlib.axis_3">
    <g id="xtick_6">
     <g id="line2d_6">
      <g>
       <use xlink:href="#m3f8162045b" x="342.623636" y="265.48" style="stroke: #000000; stroke-width: 0.8"/>
      </g>
     </g>
     <g id="text_9">
      <!-- 1★ -->
      <g transform="translate(334.959574 280.078437) scale(0.1 -0.1)">
       <use xlink:href="#DejaVuSans-31"/>
       <use xlink:href="#DejaVuSans-2605" transform="translate(63.623047 0)"/>
      </g>
     </g>
    </g>
    <g id="xtick_7">
     <g id="line2d_7">
      <g>
       <use xlink:href="#m3f8162045b" x="389.481818" y="265.48" style="stroke: #000000; stroke-width: 0.8"/>
      </g>
     </g>
     <g id="text_10">
      <!-- 2★ -->
      <g transform="translate(381.817756 280.078437) scale(0.1 -0.1)">
       <use xlink:href="#DejaVuSans-32"/>
       <use xlink:href="#DejaVuSans-2605" transform="translate(63.623047 0)"/>
      </g>
     </g>
    </g>
    <g id="xtick_8">
     <g id="line2d_8">
      <g>
       <use xlink:href="#m3f8162045b" x="436.34" y="265.48" style="stroke: #000000; stroke-width: 0.8"/>
      </g>
     </g>
     <g id="text_11">
      <!-- 3★ -->
      <g transform="translate(428.675938 280.078437) scale(0.1 -0.1)">
       <use xlink:href="#DejaVuSans-33"/>
       <use xlink:href="#DejaVuSans-2605" transform="translate(63.623047 0)"/>
      </g>
     </g>
    </g>
    <g id="xtick_9">
     <g id="line2d_9">
      <g>
       <use xlink:href="#m3f8162045b" x="483.198182" y="265.48" style="stroke: #000000; stroke-width: 0.8"/>
      </g>
     </g>
     <g id="text_12">
      <!-- 4★ -->
      <g transform="translate(475.534119 280.078437) scale(0.1 -0.1)">
       <use xlink:href="#DejaVuSans-34"/>
       <use xlink:href="#DejaVuSans-2605" transform="translate(63.623047 0)"/>
      </g>
     </g>
    </g>
    <g id="xtick_10">
     <g id="line2d_10">
      <g>
       <use xlink:href="#m3f8162045b" x="530.056364" y="265.48" style="stroke: #000000; stroke-width: 0.8"/>
      </g>
     </g>
     <g id="text_13">
      <!-- 5★ -->
      <g transform="translate(522.392301 280.078437) scale(0.1 -0.1)">
       <use xlink:href="#DejaVuSans-35"/>
       <use xlink:href="#DejaVuSans-2605" transform="translate(63.623047 0)"/>
      </g>
     </g>
    </g>
    <g id="text_14">
     <!-- Tienda 2 -->
     <g transform="translate(414.799375 293.756562) scale(0.1 -0.1)">
      <use xlink:href="#DejaVuSans-54"/>
      <use xlink:href="#DejaVuSans-69" transform="translate(57.958984 0)"/>
      <use xlink:href="#DejaVuSans-65" transform="translate(85.742188 0)"/>
      <use xlink:href="#DejaVuSans-6e" transform="translate(147.265625 0)"/>
      <use xlink:href="#DejaVuSans-64" transform="translate(210.644531 0)"/>
      <use xlink:href="#DejaVuSans-61" transform="translate(274.121094 0)"/>
      <use xlink:href="#DejaVuSans-20" transform="translate(335.400391 0)"/>
      <use xlink:href="#DejaVuSans-32" transform="translate(367.1875 0)"/>
     </g>
    </g>
   </g>
   <g id="matplotlib.axis_4">
    <g id="text_15">
     <!-- Calificaciones -->
     <g transform="translate(301.400313 193.84375) rotate(-90) scale(0.1 -0.1)">
      <use xlink:href="#DejaVuSans-43"/>
      <use xlink:href="#DejaVuSans-61" transform="translate(69.824219 0)"/>
      <use xlink:href="#DejaVuSans-6c" transform="translate(131.103516 0)"/>
      <use xlink:href="#DejaVuSans-69" transform="translate(158.886719 0)"/>
      <use xlink:href="#DejaVuSans-66" transform="translate(186.669922 0)"/>
      <use xlink:href="#DejaVuSans-69" transform="translate(221.875 0)"/>
      <use xlink:href="#DejaVuSans-63" transform="translate(249.658203 0)"/>
      <use xlink:href="#DejaVuSans-61" transform="translate(304.638672 0)"/>
      <use xlink:href="#DejaVuSans-63" transform="translate(365.917969 0)"/>
      <use xlink:href="#DejaVuSans-69" transform="translate(420.898438 0)"/>
      <use xlink:href="#DejaVuSans-6f" transform="translate(448.681641 0)"/>
      <use xlink:href="#DejaVuSans-6e" transform="translate(509.863281 0)"/>
      <use xlink:href="#DejaVuSans-65" transform="translate(573.242188 0)"/>
      <use xlink:href="#DejaVuSans-73" transform="translate(634.765625 0)"/>
     </g>
    </g>
   </g>
   <g id="patch_15">
    <path d="M 307.48 265.48 
L 565.2 265.48 
" style="fill: none; stroke: #000000; stroke-width: 0.8; stroke-linejoin: miter; stroke-linecap: square"/>
   </g>
   <g id="text_16">
    <!-- Promedio: 4.04★ -->
    <g transform="translate(385.474062 47.52) scale(0.12 -0.12)">
     <defs>
      <path id="DejaVuSans-30" d="M 2034 4250 
Q 1547 4250 1301 3770 
Q 1056 3291 1056 2328 
Q 1056 1369 1301 889 
Q 1547 409 2034 409 
Q 2525 409 2770 889 
Q 3016 1369 3016 2328 
Q 3016 3291 2770 3770 
Q 2525 4250 2034 4250 
z
M 2034 4750 
Q 2819 4750 3233 4129 
Q 3647 3509 3647 2328 
Q 3647 1150 3233 529 
Q 2819 -91 2034 -91 
Q 1250 -91 836 529 
Q 422 1150 422 2328 
Q 422 3509 836 4129 
Q 1250 4750 2034 4750 
z
" transform="scale(0.015625)"/>
     </defs>
     <use xlink:href="#DejaVuSans-50"/>
     <use xlink:href="#DejaVuSans-72" transform="translate(58.552734 0)"/>
     <use xlink:href="#DejaVuSans-6f" transform="translate(97.416016 0)"/>
     <use xlink:href="#DejaVuSans-6d" transform="translate(158.597656 0)"/>
     <use xlink:href="#DejaVuSans-65" transform="translate(256.009766 0)"/>
     <use xlink:href="#DejaVuSans-64" transform="translate(317.533203 0)"/>
     <use xlink:href="#DejaVuSans-69" transform="translate(381.009766 0)"/>
     <use xlink:href="#DejaVuSans-6f" transform="translate(408.792969 0)"/>
     <use xlink:href="#DejaVuSans-3a" transform="translate(469.974609 0)"/>
     <use xlink:href="#DejaVuSans-20" transform="translate(503.666016 0)"/>
     <use xlink:href="#DejaVuSans-34" transform="translate(535.453125 0)"/>
     <use xlink:href="#DejaVuSans-2e" transform="translate(599.076172 0)"/>
     <use xlink:href="#DejaVuSans-30" transform="translate(630.863281 0)"/>
     <use xlink:href="#DejaVuSans-34" transform="translate(694.486328 0)"/>
     <use xlink:href="#DejaVuSans-2605" transform="translate(758.109375 0)"/>
    </g>
   </g>
  </g>
  <g id="axes_3">
   <g id="patch_16">
    <path d="M 24.88 534.04 
L 282.6 534.04 
L 282.6 322.08 
L 24.88 322.08 
z
" style="fill: #ffffff"/>
   </g>
   <g id="patch_17">
    <path d="M 224.027273 534.04 
L 270.885455 534.04 
L 270.885455 332.173333 
L 224.027273 332.173333 
z
" clip-path="url(#p714b305a53)" style="fill: #ffcc00; stroke: #ffcc00; stroke-linejoin: miter"/>
   </g>
   <g id="patch_18">
    <path d="M 177.169091 534.04 
L 224.027273 534.04 
L 224.027273 469.430757 
L 177.169091 469.430757 
z
" clip-path="url(#p714b305a53)" style="fill: #ff9900; stroke: #ffcc00; stroke-linejoin: miter"/>
   </g>
   <g id="patch_19">
    <path d="M 130.310909 534.04 
L 177.169091 534.04 
L 177.169091 505.30824 
L 130.310909 505.30824 
z
" clip-path="url(#p714b305a53)" style="fill: #ff6600; stroke: #ffcc00; stroke-linejoin: miter"/>
   </g>
   <g id="patch_20">
    <path d="M 83.452727 534.04 
L 130.310909 534.04 
L 130.310909 522.279331 
L 83.452727 522.279331 
z
" clip-path="url(#p714b305a53)" style="fill: #ff3300; stroke: #ffcc00; stroke-linejoin: miter"/>
   </g>
   <g id="patch_21">
    <path d="M 36.594545 534.04 
L 83.452727 534.04 
L 83.452727 489.825841 
L 36.594545 489.825841 
z
" clip-path="url(#p714b305a53)" style="fill: #ff0000; stroke: #ffcc00; stroke-linejoin: miter"/>
   </g>
   <g id="matplotlib.axis_5">
    <g id="xtick_11">
     <g id="line2d_11">
      <g>
       <use xlink:href="#m3f8162045b" x="60.023636" y="534.04" style="stroke: #000000; stroke-width: 0.8"/>
      </g>
     </g>
     <g id="text_17">
      <!-- 1★ -->
      <g transform="translate(52.359574 548.638438) scale(0.1 -0.1)">
       <use xlink:href="#DejaVuSans-31"/>
       <use xlink:href="#DejaVuSans-2605" transform="translate(63.623047 0)"/>
      </g>
     </g>
    </g>
    <g id="xtick_12">
     <g id="line2d_12">
      <g>
       <use xlink:href="#m3f8162045b" x="106.881818" y="534.04" style="stroke: #000000; stroke-width: 0.8"/>
      </g>
     </g>
     <g id="text_18">
      <!-- 2★ -->
      <g transform="translate(99.217756 548.638438) scale(0.1 -0.1)">
       <use xlink:href="#DejaVuSans-32"/>
       <use xlink:href="#DejaVuSans-2605" transform="translate(63.623047 0)"/>
      </g>
     </g>
    </g>
    <g id="xtick_13">
     <g id="line2d_13">
      <g>
       <use xlink:href="#m3f8162045b" x="153.74" y="534.04" style="stroke: #000000; stroke-width: 0.8"/>
      </g>
     </g>
     <g id="text_19">
      <!-- 3★ -->
      <g transform="translate(146.075937 548.638438) scale(0.1 -0.1)">
       <use xlink:href="#DejaVuSans-33"/>
       <use xlink:href="#DejaVuSans-2605" transform="translate(63.623047 0)"/>
      </g>
     </g>
    </g>
    <g id="xtick_14">
     <g id="line2d_14">
      <g>
       <use xlink:href="#m3f8162045b" x="200.598182" y="534.04" style="stroke: #000000; stroke-width: 0.8"/>
      </g>
     </g>
     <g id="text_20">
      <!-- 4★ -->
      <g transform="translate(192.934119 548.638438) scale(0.1 -0.1)">
       <use xlink:href="#DejaVuSans-34"/>
       <use xlink:href="#DejaVuSans-2605" transform="translate(63.623047 0)"/>
      </g>
     </g>
    </g>
    <g id="xtick_15">
     <g id="line2d_15">
      <g>
       <use xlink:href="#m3f8162045b" x="247.456364" y="534.04" style="stroke: #000000; stroke-width: 0.8"/>
      </g>
     </g>
     <g id="text_21">
      <!-- 5★ -->
      <g transform="translate(239.792301 548.638438) scale(0.1 -0.1)">
       <use xlink:href="#DejaVuSans-35"/>
       <use xlink:href="#DejaVuSans-2605" transform="translate(63.623047 0)"/>
      </g>
     </g>
    </g>
    <g id="text_22">
     <!-- Tienda 3 -->
     <g transform="translate(132.199375 562.316563) scale(0.1 -0.1)">
      <use xlink:href="#DejaVuSans-54"/>
      <use xlink:href="#DejaVuSans-69" transform="translate(57.958984 0)"/>
      <use xlink:href="#DejaVuSans-65" transform="translate(85.742188 0)"/>
      <use xlink:href="#DejaVuSans-6e" transform="translate(147.265625 0)"/>
      <use xlink:href="#DejaVuSans-64" transform="translate(210.644531 0)"/>
      <use xlink:href="#DejaVuSans-61" transform="translate(274.121094 0)"/>
      <use xlink:href="#DejaVuSans-20" transform="translate(335.400391 0)"/>
      <use xlink:href="#DejaVuSans-33" transform="translate(367.1875 0)"/>
     </g>
    </g>
   </g>
   <g id="matplotlib.axis_6">
    <g id="text_23">
     <!-- Calificaciones -->
     <g transform="translate(18.800313 462.40375) rotate(-90) scale(0.1 -0.1)">
      <use xlink:href="#DejaVuSans-43"/>
      <use xlink:href="#DejaVuSans-61" transform="translate(69.824219 0)"/>
      <use xlink:href="#DejaVuSans-6c" transform="translate(131.103516 0)"/>
      <use xlink:href="#DejaVuSans-69" transform="translate(158.886719 0)"/>
      <use xlink:href="#DejaVuSans-66" transform="translate(186.669922 0)"/>
      <use xlink:href="#DejaVuSans-69" transform="translate(221.875 0)"/>
      <use xlink:href="#DejaVuSans-63" transform="translate(249.658203 0)"/>
      <use xlink:href="#DejaVuSans-61" transform="translate(304.638672 0)"/>
      <use xlink:href="#DejaVuSans-63" transform="translate(365.917969 0)"/>
      <use xlink:href="#DejaVuSans-69" transform="translate(420.898438 0)"/>
      <use xlink:href="#DejaVuSans-6f" transform="translate(448.681641 0)"/>
      <use xlink:href="#DejaVuSans-6e" transform="translate(509.863281 0)"/>
      <use xlink:href="#DejaVuSans-65" transform="translate(573.242188 0)"/>
      <use xlink:href="#DejaVuSans-73" transform="translate(634.765625 0)"/>
     </g>
    </g>
   </g>
   <g id="patch_22">
    <path d="M 24.88 534.04 
L 282.6 534.04 
" style="fill: none; stroke: #000000; stroke-width: 0.8; stroke-linejoin: miter; stroke-linecap: square"/>
   </g>
   <g id="text_24">
    <!-- Promedio: 4.05★ -->
    <g transform="translate(102.874062 316.08) scale(0.12 -0.12)">
     <use xlink:href="#DejaVuSans-50"/>
     <use xlink:href="#DejaVuSans-72" transform="translate(58.552734 0)"/>
     <use xlink:href="#DejaVuSans-6f" transform="translate(97.416016 0)"/>
     <use xlink:href="#DejaVuSans-6d" transform="translate(158.597656 0)"/>
     <use xlink:href="#DejaVuSans-65" transform="translate(256.009766 0)"/>
     <use xlink:href="#DejaVuSans-64" transform="translate(317.533203 0)"/>
     <use xlink:href="#DejaVuSans-69" transform="translate(381.009766 0)"/>
     <use xlink:href="#DejaVuSans-6f" transform="translate(408.792969 0)"/>
     <use xlink:href="#DejaVuSans-3a" transform="translate(469.974609 0)"/>
     <use xlink:href="#DejaVuSans-20" transform="translate(503.666016 0)"/>
     <use xlink:href="#DejaVuSans-34" transform="translate(535.453125 0)"/>
     <use xlink:href="#DejaVuSans-2e" transform="translate(599.076172 0)"/>
     <use xlink:href="#DejaVuSans-30" transform="translate(630.863281 0)"/>
     <use xlink:href="#DejaVuSans-35" transform="translate(694.486328 0)"/>
     <use xlink:href="#DejaVuSans-2605" transform="translate(758.109375 0)"/>
    </g>
   </g>
  </g>
  <g id="axes_4">
   <g id="patch_23">
    <path d="M 307.48 534.04 
L 565.2 534.04 
L 565.2 322.08 
L 307.48 322.08 
z
" style="fill: #ffffff"/>
   </g>
   <g id="patch_24">
    <path d="M 506.627273 534.04 
L 553.485455 534.04 
L 553.485455 340.51001 
L 506.627273 340.51001 
z
" clip-path="url(#p05b6250afa)" style="fill: #ffcc00; stroke: #ffcc00; stroke-linejoin: miter"/>
   </g>
   <g id="patch_25">
    <path d="M 459.769091 534.04 
L 506.627273 534.04 
L 506.627273 466.602242 
L 459.769091 466.602242 
z
" clip-path="url(#p05b6250afa)" style="fill: #ff9900; stroke: #ffcc00; stroke-linejoin: miter"/>
   </g>
   <g id="patch_26">
    <path d="M 412.910909 534.04 
L 459.769091 534.04 
L 459.769091 502.777463 
L 412.910909 502.777463 
z
" clip-path="url(#p05b6250afa)" style="fill: #ff6600; stroke: #ffcc00; stroke-linejoin: miter"/>
   </g>
   <g id="patch_27">
    <path d="M 366.052727 534.04 
L 412.910909 534.04 
L 412.910909 521.386116 
L 366.052727 521.386116 
z
" clip-path="url(#p05b6250afa)" style="fill: #ff3300; stroke: #ffcc00; stroke-linejoin: miter"/>
   </g>
   <g id="patch_28">
    <path d="M 319.194545 534.04 
L 366.052727 534.04 
L 366.052727 487.890541 
L 319.194545 487.890541 
z
" clip-path="url(#p05b6250afa)" style="fill: #ff0000; stroke: #ffcc00; stroke-linejoin: miter"/>
   </g>
   <g id="matplotlib.axis_7">
    <g id="xtick_16">
     <g id="line2d_16">
      <g>
       <use xlink:href="#m3f8162045b" x="342.623636" y="534.04" style="stroke: #000000; stroke-width: 0.8"/>
      </g>
     </g>
     <g id="text_25">
      <!-- 1★ -->
      <g transform="translate(334.959574 548.638438) scale(0.1 -0.1)">
       <use xlink:href="#DejaVuSans-31"/>
       <use xlink:href="#DejaVuSans-2605" transform="translate(63.623047 0)"/>
      </g>
     </g>
    </g>
    <g id="xtick_17">
     <g id="line2d_17">
      <g>
       <use xlink:href="#m3f8162045b" x="389.481818" y="534.04" style="stroke: #000000; stroke-width: 0.8"/>
      </g>
     </g>
     <g id="text_26">
      <!-- 2★ -->
      <g transform="translate(381.817756 548.638438) scale(0.1 -0.1)">
       <use xlink:href="#DejaVuSans-32"/>
       <use xlink:href="#DejaVuSans-2605" transform="translate(63.623047 0)"/>
      </g>
     </g>
    </g>
    <g id="xtick_18">
     <g id="line2d_18">
      <g>
       <use xlink:href="#m3f8162045b" x="436.34" y="534.04" style="stroke: #000000; stroke-width: 0.8"/>
      </g>
     </g>
     <g id="text_27">
      <!-- 3★ -->
      <g transform="translate(428.675938 548.638438) scale(0.1 -0.1)">
       <use xlink:href="#DejaVuSans-33"/>
       <use xlink:href="#DejaVuSans-2605" transform="translate(63.623047 0)"/>
      </g>
     </g>
    </g>
    <g id="xtick_19">
     <g id="line2d_19">
      <g>
       <use xlink:href="#m3f8162045b" x="483.198182" y="534.04" style="stroke: #000000; stroke-width: 0.8"/>
      </g>
     </g>
     <g id="text_28">
      <!-- 4★ -->
      <g transform="translate(475.534119 548.638438) scale(0.1 -0.1)">
       <use xlink:href="#DejaVuSans-34"/>
       <use xlink:href="#DejaVuSans-2605" transform="translate(63.623047 0)"/>
      </g>
     </g>
    </g>
    <g id="xtick_20">
     <g id="line2d_20">
      <g>
       <use xlink:href="#m3f8162045b" x="530.056364" y="534.04" style="stroke: #000000; stroke-width: 0.8"/>
      </g>
     </g>
     <g id="text_29">
      <!-- 5★ -->
      <g transform="translate(522.392301 548.638438) scale(0.1 -0.1)">
       <use xlink:href="#DejaVuSans-35"/>
       <use xlink:href="#DejaVuSans-2605" transform="translate(63.623047 0)"/>
      </g>
     </g>
    </g>
    <g id="text_30">
     <!-- Tienda 4 -->
     <g transform="translate(414.799375 562.316563) scale(0.1 -0.1)">
      <use xlink:href="#DejaVuSans-54"/>
      <use xlink:href="#DejaVuSans-69" transform="translate(57.958984 0)"/>
      <use xlink:href="#DejaVuSans-65" transform="translate(85.742188 0)"/>
      <use xlink:href="#DejaVuSans-6e" transform="translate(147.265625 0)"/>
      <use xlink:href="#DejaVuSans-64" transform="translate(210.644531 0)"/>
      <use xlink:href="#DejaVuSans-61" transform="translate(274.121094 0)"/>
      <use xlink:href="#DejaVuSans-20" transform="translate(335.400391 0)"/>
      <use xlink:href="#DejaVuSans-34" transform="translate(367.1875 0)"/>
     </g>
    </g>
   </g>
   <g id="matplotlib.axis_8">
    <g id="text_31">
     <!-- Calificaciones -->
     <g transform="translate(301.400313 462.40375) rotate(-90) scale(0.1 -0.1)">
      <use xlink:href="#DejaVuSans-43"/>
      <use xlink:href="#DejaVuSans-61" transform="translate(69.824219 0)"/>
      <use xlink:href="#DejaVuSans-6c" transform="translate(131.103516 0)"/>
      <use xlink:href="#DejaVuSans-69" transform="translate(158.886719 0)"/>
      <use xlink:href="#DejaVuSans-66" transform="translate(186.669922 0)"/>
      <use xlink:href="#DejaVuSans-69" transform="translate(221.875 0)"/>
      <use xlink:href="#DejaVuSans-63" transform="translate(249.658203 0)"/>
      <use xlink:href="#DejaVuSans-61" transform="translate(304.638672 0)"/>
      <use xlink:href="#DejaVuSans-63" transform="translate(365.917969 0)"/>
      <use xlink:href="#DejaVuSans-69" transform="translate(420.898438 0)"/>
      <use xlink:href="#DejaVuSans-6f" transform="translate(448.681641 0)"/>
      <use xlink:href="#DejaVuSans-6e" transform="translate(509.863281 0)"/>
      <use xlink:href="#DejaVuSans-65" transform="translate(573.242188 0)"/>
      <use xlink:href="#DejaVuSans-73" transform="translate(634.765625 0)"/>
     </g>
    </g>
   </g>
   <g id="patch_29">
    <path d="M 307.48 534.04 
L 565.2 534.04 
" style="fill: none; stroke: #000000; stroke-width: 0.8; stroke-linejoin: miter; stroke-linecap: square"/>
   </g>
   <g id="text_32">
    <!-- Promedio: 4.00★ -->
    <g transform="translate(385.474062 316.08) scale(0.12 -0.12)">
     <use xlink:href="#DejaVuSans-50"/>
     <use xlink:href="#DejaVuSans-72" transform="translate(58.552734 0)"/>
     <use xlink:href="#DejaVuSans-6f" transform="translate(97.416016 0)"/>
     <use xlink:href="#DejaVuSans-6d" transform="translate(158.597656 0)"/>
     <use xlink:href="#DejaVuSans-65" transform="translate(256.009766 0)"/>
     <use xlink:href="#DejaVuSans-64" transform="translate(317.533203 0)"/>
     <use xlink:href="#DejaVuSans-69" transform="translate(381.009766 0)"/>
     <use xlink:href="#DejaVuSans-6f" transform="translate(408.792969 0)"/>
     <use xlink:href="#DejaVuSans-3a" transform="translate(469.974609 0)"/>
     <use xlink:href="#DejaVuSans-20" transform="translate(503.666016 0)"/>
     <use xlink:href="#DejaVuSans-34" transform="translate(535.453125 0)"/>
     <use xlink:href="#DejaVuSans-2e" transform="translate(599.076172 0)"/>
     <use xlink:href="#DejaVuSans-30" transform="translate(630.863281 0)"/>
     <use xlink:href="#DejaVuSans-30" transform="translate(694.486328 0)"/>
     <use xlink:href="#DejaVuSans-2605" transform="translate(758.109375 0)"/>
    </g>
   </g>
  </g>
  <g id="text_33">
   <!-- ¿Cómo califican los usuarios a las tiendas? -->
   <g transform="translate(117.16375 24.13) scale(0.16 -0.16)">
    <defs>
     <path id="DejaVuSans-bf" d="M 1563 2247 
L 2156 2247 
L 2156 1759 
Q 2156 1444 2070 1241 
Q 1984 1038 1703 766 
L 1422 491 
Q 1241 325 1161 178 
Q 1081 31 1081 -122 
Q 1081 -400 1286 -572 
Q 1491 -744 1831 -744 
Q 2075 -744 2356 -634 
Q 2638 -525 2938 -316 
L 2938 -903 
Q 2644 -1081 2344 -1168 
Q 2044 -1256 1722 -1256 
Q 1147 -1256 797 -953 
Q 447 -650 447 -153 
Q 447 84 561 298 
Q 675 513 953 781 
L 1228 1050 
Q 1378 1197 1437 1280 
Q 1497 1363 1522 1441 
Q 1544 1506 1553 1600 
Q 1563 1694 1563 1863 
L 1563 2247 
z
M 2175 2706 
L 1544 2706 
L 1544 3500 
L 2175 3500 
L 2175 2706 
z
" transform="scale(0.015625)"/>
     <path id="DejaVuSans-f3" d="M 1959 3097 
Q 1497 3097 1228 2736 
Q 959 2375 959 1747 
Q 959 1119 1226 758 
Q 1494 397 1959 397 
Q 2419 397 2687 759 
Q 2956 1122 2956 1747 
Q 2956 2369 2687 2733 
Q 2419 3097 1959 3097 
z
M 1959 3584 
Q 2709 3584 3137 3096 
Q 3566 2609 3566 1747 
Q 3566 888 3137 398 
Q 2709 -91 1959 -91 
Q 1206 -91 779 398 
Q 353 888 353 1747 
Q 353 2609 779 3096 
Q 1206 3584 1959 3584 
z
M 2394 5119 
L 3016 5119 
L 1997 3944 
L 1519 3944 
L 2394 5119 
z
" transform="scale(0.015625)"/>
     <path id="DejaVuSans-75" d="M 544 1381 
L 544 3500 
L 1119 3500 
L 1119 1403 
Q 1119 906 1312 657 
Q 1506 409 1894 409 
Q 2359 409 2629 706 
Q 2900 1003 2900 1516 
L 2900 3500 
L 3475 3500 
L 3475 0 
L 2900 0 
L 2900 538 
Q 2691 219 2414 64 
Q 2138 -91 1772 -91 
Q 1169 -91 856 284 
Q 544 659 544 1381 
z
M 1991 3584 
L 1991 3584 
z
" transform="scale(0.015625)"/>
     <path id="DejaVuSans-74" d="M 1172 4494 
L 1172 3500 
L 2356 3500 
L 2356 3053 
L 1172 3053 
L 1172 1153 
Q 1172 725 1289 603 
Q 1406 481 1766 481 
L 2356 481 
L 2356 0 
L 1766 0 
Q 1100 0 847 248 
Q 594 497 594 1153 
L 594 3053 
L 172 3053 
L 172 3500 
L 594 3500 
L 594 4494 
L 1172 4494 
z
" transform="scale(0.015625)"/>
     <path id="DejaVuSans-3f" d="M 1222 794 
L 1856 794 
L 1856 0 
L 1222 0 
L 1222 794 
z
M 1838 1253 
L 1241 1253 
L 1241 1734 
Q 1241 2050 1328 2253 
Q 1416 2456 1697 2725 
L 1978 3003 
Q 2156 3169 2236 3316 
Q 2316 3463 2316 3616 
Q 2316 3894 2111 4066 
Q 1906 4238 1569 4238 
Q 1322 4238 1042 4128 
Q 763 4019 459 3809 
L 459 4397 
Q 753 4575 1054 4662 
Q 1356 4750 1678 4750 
Q 2253 4750 2601 4447 
Q 2950 4144 2950 3647 
Q 2950 3409 2837 3195 
Q 2725 2981 2444 2713 
L 2169 2444 
Q 2022 2297 1961 2214 
Q 1900 2131 1875 2053 
Q 1856 1988 1847 1894 
Q 1838 1800 1838 1638 
L 1838 1253 
z
" transform="scale(0.015625)"/>
    </defs>
    <use xlink:href="#DejaVuSans-bf"/>
    <use xlink:href="#DejaVuSans-43" transform="translate(53.076172 0)"/>
    <use xlink:href="#DejaVuSans-f3" transform="translate(122.900391 0)"/>
    <use xlink:href="#DejaVuSans-6d" transform="translate(184.082031 0)"/>
    <use xlink:href="#DejaVuSans-6f" transform="translate(281.494141 0)"/>
    <use xlink:href="#DejaVuSans-20" transform="translate(342.675781 0)"/>
    <use xlink:href="#DejaVuSans-63" transform="translate(374.462891 0)"/>
    <use xlink:href="#DejaVuSans-61" transform="translate(429.443359 0)"/>
    <use xlink:href="#DejaVuSans-6c" transform="translate(490.722656 0)"/>
    <use xlink:href="#DejaVuSans-69" transform="translate(518.505859 0)"/>
    <use xlink:href="#DejaVuSans-66" transform="translate(546.289062 0)"/>
    <use xlink:href="#DejaVuSans-69" transform="translate(581.494141 0)"/>
    <use xlink:href="#DejaVuSans-63" transform="translate(609.277344 0)"/>
    <use xlink:href="#DejaVuSans-61" transform="translate(664.257812 0)"/>
    <use xlink:href="#DejaVuSans-6e" transform="translate(725.537109 0)"/>
    <use xlink:href="#DejaVuSans-20" transform="translate(788.916016 0)"/>
    <use xlink:href="#DejaVuSans-6c" transform="translate(820.703125 0)"/>
    <use xlink:href="#DejaVuSans-6f" transform="translate(848.486328 0)"/>
    <use xlink:href="#DejaVuSans-73" transform="translate(909.667969 0)"/>
    <use xlink:href="#DejaVuSans-20" transform="translate(961.767578 0)"/>
    <use xlink:href="#DejaVuSans-75" transform="translate(993.554688 0)"/>
    <use xlink:href="#DejaVuSans-73" transform="translate(1056.933594 0)"/>
    <use xlink:href="#DejaVuSans-75" transform="translate(1109.033203 0)"/>
    <use xlink:href="#DejaVuSans-61" transform="translate(1172.412109 0)"/>
    <use xlink:href="#DejaVuSans-72" transform="translate(1233.691406 0)"/>
    <use xlink:href="#DejaVuSans-69" transform="translate(1274.804688 0)"/>
    <use xlink:href="#DejaVuSans-6f" transform="translate(1302.587891 0)"/>
    <use xlink:href="#DejaVuSans-73" transform="translate(1363.769531 0)"/>
    <use xlink:href="#DejaVuSans-20" transform="translate(1415.869141 0)"/>
    <use xlink:href="#DejaVuSans-61" transform="translate(1447.65625 0)"/>
    <use xlink:href="#DejaVuSans-20" transform="translate(1508.935547 0)"/>
    <use xlink:href="#DejaVuSans-6c" transform="translate(1540.722656 0)"/>
    <use xlink:href="#DejaVuSans-61" transform="translate(1568.505859 0)"/>
    <use xlink:href="#DejaVuSans-73" transform="translate(1629.785156 0)"/>
    <use xlink:href="#DejaVuSans-20" transform="translate(1681.884766 0)"/>
    <use xlink:href="#DejaVuSans-74" transform="translate(1713.671875 0)"/>
    <use xlink:href="#DejaVuSans-69" transform="translate(1752.880859 0)"/>
    <use xlink:href="#DejaVuSans-65" transform="translate(1780.664062 0)"/>
    <use xlink:href="#DejaVuSans-6e" transform="translate(1842.1875 0)"/>
    <use xlink:href="#DejaVuSans-64" transform="translate(1905.566406 0)"/>
    <use xlink:href="#DejaVuSans-61" transform="translate(1969.042969 0)"/>
    <use xlink:href="#DejaVuSans-73" transform="translate(2030.322266 0)"/>
    <use xlink:href="#DejaVuSans-3f" transform="translate(2082.421875 0)"/>
   </g>
  </g>
 </g>
 <defs>
  <clipPath id="pa876c57412">
   <rect x="24.88" y="53.52" width="257.72" height="211.96"/>
  </clipPath>
  <clipPath id="p833a66adae">
   <rect x="307.48" y="53.52" width="257.72" height="211.96"/>
  </clipPath>
  <clipPath id="p714b305a53">
   <rect x="24.88" y="322.08" width="257.72" height="211.96"/>
  </clipPath>
  <clipPath id="p05b6250afa">
   <rect x="307.48" y="322.08" width="257.72" height="211.96"/>
  </clipPath>
 </defs>
</svg>
