<?xml version="1.0" encoding="utf-8" standalone="no"?>
<!DOCTYPE svg PUBLIC "-//W3C//DTD SVG 1.1//EN"
  "http://www.w3.org/Graphics/SVG/1.1/DTD/svg11.dtd">
<svg xmlns:xlink="http://www.w3.org/1999/xlink" width="504pt" height="576pt" viewBox="0 0 504 576" xmlns="http://www.w3.org/2000/svg" version="1.1">
 <metadata>
  <rdf:RDF xmlns:dc="http://purl.org/dc/elements/1.1/" xmlns:cc="http://creativecommons.org/ns#" xmlns:rdf="http://www.w3.org/1999/02/22-rdf-syntax-ns#">
   <cc:Work>
    <dc:type rdf:resource="http://purl.org/dc/dcmitype/StillImage"/>
    <dc:date>2025-11-10T12:40:13.444987</dc:date>
    <dc:format>image/svg+xml</dc:format>
    <dc:creator>
     <cc:Agent>
      <dc:title>Matplotlib v3.10.7, https://matplotlib.org/</dc:title>
     </cc:Agent>
    </dc:creator>
   </cc:Work>
  </rdf:RDF>
 </metadata>
 <defs>
  <style type="text/css">*{stroke-linejoin: round; stroke-linecap: butt}</style>
 </defs>
 <g id="figure_1">
  <g id="patch_1">
   <path d="M 0 576 
L 504 576 
L 504 0 
L 0 0 
z
" style="fill: #ffffff"/>
  </g>
  <g id="axes_1">
   <g id="patch_2">
    <path d="M 53.08149 542.64351 
L 372.360446 542.64351 
L 372.360446 21.79774 
L 53.08149 21.79774 
z
" style="fill: #ffffff"/>
   </g>
   <g id="patch_3">
    <path d="M -1130.196073 45.472548 
L 243.046747 45.472548 
L 243.046747 70.393398 
L -1130.196073 70.393398 
z
" clip-path="url(#pe30449163f)" style="fill: #9c9ede"/>
   </g>
   <g id="patch_4">
    <path d="M -1130.196073 170.076799 
L 357.483648 170.076799 
L 357.483648 194.997649 
L -1130.196073 194.997649 
z
" clip-path="url(#pe30449163f)" style="fill: #cedb9c"/>
   </g>
   <g id="patch_5">
    <path d="M -1130.196073 294.68105 
L 174.384606 294.68105 
L 174.384606 319.6019 
L -1130.196073 319.6019 
z
" clip-path="url(#pe30449163f)" style="fill: #e7cb94"/>
   </g>
   <g id="patch_6">
    <path d="M -1130.196073 419.285301 
L 288.821507 419.285301 
L 288.821507 444.206152 
L -1130.196073 444.206152 
z
" clip-path="url(#pe30449163f)" style="fill: #e7969c"/>
   </g>
   <g id="patch_7">
    <path d="M -1130.196073 70.393398 
L 243.046747 70.393398 
L 243.046747 95.314248 
L -1130.196073 95.314248 
z
" clip-path="url(#pe30449163f)" style="fill: #6b6ecf"/>
   </g>
   <g id="patch_8">
    <path d="M -1130.196073 194.997649 
L 288.821507 194.997649 
L 288.821507 219.918499 
L -1130.196073 219.918499 
z
" clip-path="url(#pe30449163f)" style="fill: #b5cf6b"/>
   </g>
   <g id="patch_9">
    <path d="M -1130.196073 319.6019 
L 151.497225 319.6019 
L 151.497225 344.522751 
L -1130.196073 344.522751 
z
" clip-path="url(#pe30449163f)" style="fill: #e7ba52"/>
   </g>
   <g id="patch_10">
    <path d="M -1130.196073 444.206152 
L 220.159366 444.206152 
L 220.159366 469.127002 
L -1130.196073 469.127002 
z
" clip-path="url(#pe30449163f)" style="fill: #d6616b"/>
   </g>
   <g id="patch_11">
    <path d="M -1130.196073 95.314248 
L 243.046747 95.314248 
L 243.046747 120.235098 
L -1130.196073 120.235098 
z
" clip-path="url(#pe30449163f)" style="fill: #5254a3"/>
   </g>
   <g id="patch_12">
    <path d="M -1130.196073 219.918499 
L 265.934127 219.918499 
L 265.934127 244.83935 
L -1130.196073 244.83935 
z
" clip-path="url(#pe30449163f)" style="fill: #8ca252"/>
   </g>
   <g id="patch_13">
    <path d="M -1130.196073 344.522751 
L 151.497225 344.522751 
L 151.497225 369.443601 
L -1130.196073 369.443601 
z
" clip-path="url(#pe30449163f)" style="fill: #bd9e39"/>
   </g>
   <g id="patch_14">
    <path d="M -1130.196073 469.127002 
L 151.497225 469.127002 
L 151.497225 494.047852 
L -1130.196073 494.047852 
z
" clip-path="url(#pe30449163f)" style="fill: #ad494a"/>
   </g>
   <g id="patch_15">
    <path d="M -1130.196073 120.235098 
L 197.271986 120.235098 
L 197.271986 145.155949 
L -1130.196073 145.155949 
z
" clip-path="url(#pe30449163f)" style="fill: #393b79"/>
   </g>
   <g id="patch_16">
    <path d="M -1130.196073 244.83935 
L 197.271986 244.83935 
L 197.271986 269.7602 
L -1130.196073 269.7602 
z
" clip-path="url(#pe30449163f)" style="fill: #637939"/>
   </g>
   <g id="patch_17">
    <path d="M -1130.196073 369.443601 
L 128.609845 369.443601 
L 128.609845 394.364451 
L -1130.196073 394.364451 
z
" clip-path="url(#pe30449163f)" style="fill: #8c6d31"/>
   </g>
   <g id="patch_18">
    <path d="M -1130.196073 494.047852 
L 151.497225 494.047852 
L 151.497225 518.968702 
L -1130.196073 518.968702 
z
" clip-path="url(#pe30449163f)" style="fill: #843c39"/>
   </g>
   <g id="matplotlib.axis_1">
    <g id="xtick_1">
     <g id="line2d_1">
      <defs>
       <path id="m517b031040" d="M 0 0 
L 0 3.5 
" style="stroke: #000000; stroke-width: 0.8"/>
      </defs>
      <g>
       <use xlink:href="#m517b031040" x="59.947704" y="542.64351" style="stroke: #000000; stroke-width: 0.8"/>
      </g>
     </g>
     <g id="text_1">
      <!-- 52 -->
      <g transform="translate(53.585204 557.241948) scale(0.1 -0.1)">
       <defs>
        <path id="DejaVuSans-35" d="M 691 4666 
L 3169 4666 
L 3169 4134 
L 1269 4134 
L 1269 2991 
Q 1406 3038 1543 3061 
Q 1681 3084 1819 3084 
Q 2600 3084 3056 2656 
Q 3513 2228 3513 1497 
Q 3513 744 3044 326 
Q 2575 -91 1722 -91 
Q 1428 -91 1123 -41 
Q 819 9 494 109 
L 494 744 
Q 775 591 1075 516 
Q 1375 441 1709 441 
Q 2250 441 2565 725 
Q 2881 1009 2881 1497 
Q 2881 1984 2565 2268 
Q 2250 2553 1709 2553 
Q 1456 2553 1204 2497 
Q 953 2441 691 2322 
L 691 4666 
z
" transform="scale(0.015625)"/>
        <path id="DejaVuSans-32" d="M 1228 531 
L 3431 531 
L 3431 0 
L 469 0 
L 469 531 
Q 828 903 1448 1529 
Q 2069 2156 2228 2338 
Q 2531 2678 2651 2914 
Q 2772 3150 2772 3378 
Q 2772 3750 2511 3984 
Q 2250 4219 1831 4219 
Q 1534 4219 1204 4116 
Q 875 4013 500 3803 
L 500 4441 
Q 881 4594 1212 4672 
Q 1544 4750 1819 4750 
Q 2544 4750 2975 4387 
Q 3406 4025 3406 3419 
Q 3406 3131 3298 2873 
Q 3191 2616 2906 2266 
Q 2828 2175 2409 1742 
Q 1991 1309 1228 531 
z
" transform="scale(0.015625)"/>
       </defs>
       <use xlink:href="#DejaVuSans-35"/>
       <use xlink:href="#DejaVuSans-32" transform="translate(63.623047 0)"/>
      </g>
     </g>
    </g>
    <g id="xtick_2">
     <g id="line2d_2">
      <g>
       <use xlink:href="#m517b031040" x="105.722465" y="542.64351" style="stroke: #000000; stroke-width: 0.8"/>
      </g>
     </g>
     <g id="text_2">
      <!-- 54 -->
      <g transform="translate(99.359965 557.241948) scale(0.1 -0.1)">
       <defs>
        <path id="DejaVuSans-34" d="M 2419 4116 
L 825 1625 
L 2419 1625 
L 2419 4116 
z
M 2253 4666 
L 3047 4666 
L 3047 1625 
L 3713 1625 
L 3713 1100 
L 3047 1100 
L 3047 0 
L 2419 0 
L 2419 1100 
L 313 1100 
L 313 1709 
L 2253 4666 
z
" transform="scale(0.015625)"/>
       </defs>
       <use xlink:href="#DejaVuSans-35"/>
       <use xlink:href="#DejaVuSans-34" transform="translate(63.623047 0)"/>
      </g>
     </g>
    </g>
    <g id="xtick_3">
     <g id="line2d_3">
      <g>
       <use xlink:href="#m517b031040" x="151.497225" y="542.64351" style="stroke: #000000; stroke-width: 0.8"/>
      </g>
     </g>
     <g id="text_3">
      <!-- 56 -->
      <g transform="translate(145.134725 557.241948) scale(0.1 -0.1)">
       <defs>
        <path id="DejaVuSans-36" d="M 2113 2584 
Q 1688 2584 1439 2293 
Q 1191 2003 1191 1497 
Q 1191 994 1439 701 
Q 1688 409 2113 409 
Q 2538 409 2786 701 
Q 3034 994 3034 1497 
Q 3034 2003 2786 2293 
Q 2538 2584 2113 2584 
z
M 3366 4563 
L 3366 3988 
Q 3128 4100 2886 4159 
Q 2644 4219 2406 4219 
Q 1781 4219 1451 3797 
Q 1122 3375 1075 2522 
Q 1259 2794 1537 2939 
Q 1816 3084 2150 3084 
Q 2853 3084 3261 2657 
Q 3669 2231 3669 1497 
Q 3669 778 3244 343 
Q 2819 -91 2113 -91 
Q 1303 -91 875 529 
Q 447 1150 447 2328 
Q 447 3434 972 4092 
Q 1497 4750 2381 4750 
Q 2619 4750 2861 4703 
Q 3103 4656 3366 4563 
z
" transform="scale(0.015625)"/>
       </defs>
       <use xlink:href="#DejaVuSans-35"/>
       <use xlink:href="#DejaVuSans-36" transform="translate(63.623047 0)"/>
      </g>
     </g>
    </g>
    <g id="xtick_4">
     <g id="line2d_4">
      <g>
       <use xlink:href="#m517b031040" x="197.271986" y="542.64351" style="stroke: #000000; stroke-width: 0.8"/>
      </g>
     </g>
     <g id="text_4">
      <!-- 58 -->
      <g transform="translate(190.909486 557.241948) scale(0.1 -0.1)">
       <defs>
        <path id="DejaVuSans-38" d="M 2034 2216 
Q 1584 2216 1326 1975 
Q 1069 1734 1069 1313 
Q 1069 891 1326 650 
Q 1584 409 2034 409 
Q 2484 409 2743 651 
Q 3003 894 3003 1313 
Q 3003 1734 2745 1975 
Q 2488 2216 2034 2216 
z
M 1403 2484 
Q 997 2584 770 2862 
Q 544 3141 544 3541 
Q 544 4100 942 4425 
Q 1341 4750 2034 4750 
Q 2731 4750 3128 4425 
Q 3525 4100 3525 3541 
Q 3525 3141 3298 2862 
Q 3072 2584 2669 2484 
Q 3125 2378 3379 2068 
Q 3634 1759 3634 1313 
Q 3634 634 3220 271 
Q 2806 -91 2034 -91 
Q 1263 -91 848 271 
Q 434 634 434 1313 
Q 434 1759 690 2068 
Q 947 2378 1403 2484 
z
M 1172 3481 
Q 1172 3119 1398 2916 
Q 1625 2713 2034 2713 
Q 2441 2713 2670 2916 
Q 2900 3119 2900 3481 
Q 2900 3844 2670 4047 
Q 2441 4250 2034 4250 
Q 1625 4250 1398 4047 
Q 1172 3844 1172 3481 
z
" transform="scale(0.015625)"/>
       </defs>
       <use xlink:href="#DejaVuSans-35"/>
       <use xlink:href="#DejaVuSans-38" transform="translate(63.623047 0)"/>
      </g>
     </g>
    </g>
    <g id="xtick_5">
     <g id="line2d_5">
      <g>
       <use xlink:href="#m517b031040" x="243.046747" y="542.64351" style="stroke: #000000; stroke-width: 0.8"/>
      </g>
     </g>
     <g id="text_5">
      <!-- 60 -->
      <g transform="translate(236.684247 557.241948) scale(0.1 -0.1)">
       <defs>
        <path id="DejaVuSans-30" d="M 2034 4250 
Q 1547 4250 1301 3770 
Q 1056 3291 1056 2328 
Q 1056 1369 1301 889 
Q 1547 409 2034 409 
Q 2525 409 2770 889 
Q 3016 1369 3016 2328 
Q 3016 3291 2770 3770 
Q 2525 4250 2034 4250 
z
M 2034 4750 
Q 2819 4750 3233 4129 
Q 3647 3509 3647 2328 
Q 3647 1150 3233 529 
Q 2819 -91 2034 -91 
Q 1250 -91 836 529 
Q 422 1150 422 2328 
Q 422 3509 836 4129 
Q 1250 4750 2034 4750 
z
" transform="scale(0.015625)"/>
       </defs>
       <use xlink:href="#DejaVuSans-36"/>
       <use xlink:href="#DejaVuSans-30" transform="translate(63.623047 0)"/>
      </g>
     </g>
    </g>
    <g id="xtick_6">
     <g id="line2d_6">
      <g>
       <use xlink:href="#m517b031040" x="288.821507" y="542.64351" style="stroke: #000000; stroke-width: 0.8"/>
      </g>
     </g>
     <g id="text_6">
      <!-- 62 -->
      <g transform="translate(282.459007 557.241948) scale(0.1 -0.1)">
       <use xlink:href="#DejaVuSans-36"/>
       <use xlink:href="#DejaVuSans-32" transform="translate(63.623047 0)"/>
      </g>
     </g>
    </g>
    <g id="xtick_7">
     <g id="line2d_7">
      <g>
       <use xlink:href="#m517b031040" x="334.596268" y="542.64351" style="stroke: #000000; stroke-width: 0.8"/>
      </g>
     </g>
     <g id="text_7">
      <!-- 64 -->
      <g transform="translate(328.233768 557.241948) scale(0.1 -0.1)">
       <use xlink:href="#DejaVuSans-36"/>
       <use xlink:href="#DejaVuSans-34" transform="translate(63.623047 0)"/>
      </g>
     </g>
    </g>
    <g id="text_8">
     <!-- Unidades vendidas -->
     <g transform="translate(165.21003 570.920072) scale(0.1 -0.1)">
      <defs>
       <path id="DejaVuSans-55" d="M 556 4666 
L 1191 4666 
L 1191 1831 
Q 1191 1081 1462 751 
Q 1734 422 2344 422 
Q 2950 422 3222 751 
Q 3494 1081 3494 1831 
L 3494 4666 
L 4128 4666 
L 4128 1753 
Q 4128 841 3676 375 
Q 3225 -91 2344 -91 
Q 1459 -91 1007 375 
Q 556 841 556 1753 
L 556 4666 
z
" transform="scale(0.015625)"/>
       <path id="DejaVuSans-6e" d="M 3513 2113 
L 3513 0 
L 2938 0 
L 2938 2094 
Q 2938 2591 2744 2837 
Q 2550 3084 2163 3084 
Q 1697 3084 1428 2787 
Q 1159 2491 1159 1978 
L 1159 0 
L 581 0 
L 581 3500 
L 1159 3500 
L 1159 2956 
Q 1366 3272 1645 3428 
Q 1925 3584 2291 3584 
Q 2894 3584 3203 3211 
Q 3513 2838 3513 2113 
z
" transform="scale(0.015625)"/>
       <path id="DejaVuSans-69" d="M 603 3500 
L 1178 3500 
L 1178 0 
L 603 0 
L 603 3500 
z
M 603 4863 
L 1178 4863 
L 1178 4134 
L 603 4134 
L 603 4863 
z
" transform="scale(0.015625)"/>
       <path id="DejaVuSans-64" d="M 2906 2969 
L 2906 4863 
L 3481 4863 
L 3481 0 
L 2906 0 
L 2906 525 
Q 2725 213 2448 61 
Q 2172 -91 1784 -91 
Q 1150 -91 751 415 
Q 353 922 353 1747 
Q 353 2572 751 3078 
Q 1150 3584 1784 3584 
Q 2172 3584 2448 3432 
Q 2725 3281 2906 2969 
z
M 947 1747 
Q 947 1113 1208 752 
Q 1469 391 1925 391 
Q 2381 391 2643 752 
Q 2906 1113 2906 1747 
Q 2906 2381 2643 2742 
Q 2381 3103 1925 3103 
Q 1469 3103 1208 2742 
Q 947 2381 947 1747 
z
" transform="scale(0.015625)"/>
       <path id="DejaVuSans-61" d="M 2194 1759 
Q 1497 1759 1228 1600 
Q 959 1441 959 1056 
Q 959 750 1161 570 
Q 1363 391 1709 391 
Q 2188 391 2477 730 
Q 2766 1069 2766 1631 
L 2766 1759 
L 2194 1759 
z
M 3341 1997 
L 3341 0 
L 2766 0 
L 2766 531 
Q 2569 213 2275 61 
Q 1981 -91 1556 -91 
Q 1019 -91 701 211 
Q 384 513 384 1019 
Q 384 1609 779 1909 
Q 1175 2209 1959 2209 
L 2766 2209 
L 2766 2266 
Q 2766 2663 2505 2880 
Q 2244 3097 1772 3097 
Q 1472 3097 1187 3025 
Q 903 2953 641 2809 
L 641 3341 
Q 956 3463 1253 3523 
Q 1550 3584 1831 3584 
Q 2591 3584 2966 3190 
Q 3341 2797 3341 1997 
z
" transform="scale(0.015625)"/>
       <path id="DejaVuSans-65" d="M 3597 1894 
L 3597 1613 
L 953 1613 
Q 991 1019 1311 708 
Q 1631 397 2203 397 
Q 2534 397 2845 478 
Q 3156 559 3463 722 
L 3463 178 
Q 3153 47 2828 -22 
Q 2503 -91 2169 -91 
Q 1331 -91 842 396 
Q 353 884 353 1716 
Q 353 2575 817 3079 
Q 1281 3584 2069 3584 
Q 2775 3584 3186 3129 
Q 3597 2675 3597 1894 
z
M 3022 2063 
Q 3016 2534 2758 2815 
Q 2500 3097 2075 3097 
Q 1594 3097 1305 2825 
Q 1016 2553 972 2059 
L 3022 2063 
z
" transform="scale(0.015625)"/>
       <path id="DejaVuSans-73" d="M 2834 3397 
L 2834 2853 
Q 2591 2978 2328 3040 
Q 2066 3103 1784 3103 
Q 1356 3103 1142 2972 
Q 928 2841 928 2578 
Q 928 2378 1081 2264 
Q 1234 2150 1697 2047 
L 1894 2003 
Q 2506 1872 2764 1633 
Q 3022 1394 3022 966 
Q 3022 478 2636 193 
Q 2250 -91 1575 -91 
Q 1294 -91 989 -36 
Q 684 19 347 128 
L 347 722 
Q 666 556 975 473 
Q 1284 391 1588 391 
Q 1994 391 2212 530 
Q 2431 669 2431 922 
Q 2431 1156 2273 1281 
Q 2116 1406 1581 1522 
L 1381 1569 
Q 847 1681 609 1914 
Q 372 2147 372 2553 
Q 372 3047 722 3315 
Q 1072 3584 1716 3584 
Q 2034 3584 2315 3537 
Q 2597 3491 2834 3397 
z
" transform="scale(0.015625)"/>
       <path id="DejaVuSans-20" transform="scale(0.015625)"/>
       <path id="DejaVuSans-76" d="M 191 3500 
L 800 3500 
L 1894 563 
L 2988 3500 
L 3597 3500 
L 2284 0 
L 1503 0 
L 191 3500 
z
" transform="scale(0.015625)"/>
      </defs>
      <use xlink:href="#DejaVuSans-55"/>
      <use xlink:href="#DejaVuSans-6e" transform="translate(73.193359 0)"/>
      <use xlink:href="#DejaVuSans-69" transform="translate(136.572266 0)"/>
      <use xlink:href="#DejaVuSans-64" transform="translate(164.355469 0)"/>
      <use xlink:href="#DejaVuSans-61" transform="translate(227.832031 0)"/>
      <use xlink:href="#DejaVuSans-64" transform="translate(289.111328 0)"/>
      <use xlink:href="#DejaVuSans-65" transform="translate(352.587891 0)"/>
      <use xlink:href="#DejaVuSans-73" transform="translate(414.111328 0)"/>
      <use xlink:href="#DejaVuSans-20" transform="translate(466.210938 0)"/>
      <use xlink:href="#DejaVuSans-76" transform="translate(497.998047 0)"/>
      <use xlink:href="#DejaVuSans-65" transform="translate(557.177734 0)"/>
      <use xlink:href="#DejaVuSans-6e" transform="translate(618.701172 0)"/>
      <use xlink:href="#DejaVuSans-64" transform="translate(682.080078 0)"/>
      <use xlink:href="#DejaVuSans-69" transform="translate(745.556641 0)"/>
      <use xlink:href="#DejaVuSans-64" transform="translate(773.339844 0)"/>
      <use xlink:href="#DejaVuSans-61" transform="translate(836.816406 0)"/>
      <use xlink:href="#DejaVuSans-73" transform="translate(898.095703 0)"/>
     </g>
    </g>
   </g>
   <g id="matplotlib.axis_2">
    <g id="ytick_1">
     <g id="line2d_8">
      <defs>
       <path id="md7050b97b4" d="M 0 0 
L -3.5 0 
" style="stroke: #000000; stroke-width: 0.8"/>
      </defs>
      <g>
       <use xlink:href="#md7050b97b4" x="53.08149" y="95.314248" style="stroke: #000000; stroke-width: 0.8"/>
      </g>
     </g>
     <g id="text_9">
      <!-- Tienda 1 -->
      <g transform="translate(3.00024 99.113467) scale(0.1 -0.1)">
       <defs>
        <path id="DejaVuSans-54" d="M -19 4666 
L 3928 4666 
L 3928 4134 
L 2272 4134 
L 2272 0 
L 1638 0 
L 1638 4134 
L -19 4134 
L -19 4666 
z
" transform="scale(0.015625)"/>
        <path id="DejaVuSans-31" d="M 794 531 
L 1825 531 
L 1825 4091 
L 703 3866 
L 703 4441 
L 1819 4666 
L 2450 4666 
L 2450 531 
L 3481 531 
L 3481 0 
L 794 0 
L 794 531 
z
" transform="scale(0.015625)"/>
       </defs>
       <use xlink:href="#DejaVuSans-54"/>
       <use xlink:href="#DejaVuSans-69" transform="translate(57.958984 0)"/>
       <use xlink:href="#DejaVuSans-65" transform="translate(85.742188 0)"/>
       <use xlink:href="#DejaVuSans-6e" transform="translate(147.265625 0)"/>
       <use xlink:href="#DejaVuSans-64" transform="translate(210.644531 0)"/>
       <use xlink:href="#DejaVuSans-61" transform="translate(274.121094 0)"/>
       <use xlink:href="#DejaVuSans-20" transform="translate(335.400391 0)"/>
       <use xlink:href="#DejaVuSans-31" transform="translate(367.1875 0)"/>
      </g>
     </g>
    </g>
    <g id="ytick_2">
     <g id="line2d_9">
      <g>
       <use xlink:href="#md7050b97b4" x="53.08149" y="219.918499" style="stroke: #000000; stroke-width: 0.8"/>
      </g>
     </g>
     <g id="text_10">
      <!-- Tienda 2 -->
      <g transform="translate(3.00024 223.717718) scale(0.1 -0.1)">
       <use xlink:href="#DejaVuSans-54"/>
       <use xlink:href="#DejaVuSans-69" transform="translate(57.958984 0)"/>
       <use xlink:href="#DejaVuSans-65" transform="translate(85.742188 0)"/>
       <use xlink:href="#DejaVuSans-6e" transform="translate(147.265625 0)"/>
       <use xlink:href="#DejaVuSans-64" transform="translate(210.644531 0)"/>
       <use xlink:href="#DejaVuSans-61" transform="translate(274.121094 0)"/>
       <use xlink:href="#DejaVuSans-20" transform="translate(335.400391 0)"/>
       <use xlink:href="#DejaVuSans-32" transform="translate(367.1875 0)"/>
      </g>
     </g>
    </g>
    <g id="ytick_3">
     <g id="line2d_10">
      <g>
       <use xlink:href="#md7050b97b4" x="53.08149" y="344.522751" style="stroke: #000000; stroke-width: 0.8"/>
      </g>
     </g>
     <g id="text_11">
      <!-- Tienda 3 -->
      <g transform="translate(3.00024 348.321969) scale(0.1 -0.1)">
       <defs>
        <path id="DejaVuSans-33" d="M 2597 2516 
Q 3050 2419 3304 2112 
Q 3559 1806 3559 1356 
Q 3559 666 3084 287 
Q 2609 -91 1734 -91 
Q 1441 -91 1130 -33 
Q 819 25 488 141 
L 488 750 
Q 750 597 1062 519 
Q 1375 441 1716 441 
Q 2309 441 2620 675 
Q 2931 909 2931 1356 
Q 2931 1769 2642 2001 
Q 2353 2234 1838 2234 
L 1294 2234 
L 1294 2753 
L 1863 2753 
Q 2328 2753 2575 2939 
Q 2822 3125 2822 3475 
Q 2822 3834 2567 4026 
Q 2313 4219 1838 4219 
Q 1578 4219 1281 4162 
Q 984 4106 628 3988 
L 628 4550 
Q 988 4650 1302 4700 
Q 1616 4750 1894 4750 
Q 2613 4750 3031 4423 
Q 3450 4097 3450 3541 
Q 3450 3153 3228 2886 
Q 3006 2619 2597 2516 
z
" transform="scale(0.015625)"/>
       </defs>
       <use xlink:href="#DejaVuSans-54"/>
       <use xlink:href="#DejaVuSans-69" transform="translate(57.958984 0)"/>
       <use xlink:href="#DejaVuSans-65" transform="translate(85.742188 0)"/>
       <use xlink:href="#DejaVuSans-6e" transform="translate(147.265625 0)"/>
       <use xlink:href="#DejaVuSans-64" transform="translate(210.644531 0)"/>
       <use xlink:href="#DejaVuSans-61" transform="translate(274.121094 0)"/>
       <use xlink:href="#DejaVuSans-20" transform="translate(335.400391 0)"/>
       <use xlink:href="#DejaVuSans-33" transform="translate(367.1875 0)"/>
      </g>
     </g>
    </g>
    <g id="ytick_4">
     <g id="line2d_11">
      <g>
       <use xlink:href="#md7050b97b4" x="53.08149" y="469.127002" style="stroke: #000000; stroke-width: 0.8"/>
      </g>
     </g>
     <g id="text_12">
      <!-- Tienda 4 -->
      <g transform="translate(3.00024 472.926221) scale(0.1 -0.1)">
       <use xlink:href="#DejaVuSans-54"/>
       <use xlink:href="#DejaVuSans-69" transform="translate(57.958984 0)"/>
       <use xlink:href="#DejaVuSans-65" transform="translate(85.742188 0)"/>
       <use xlink:href="#DejaVuSans-6e" transform="translate(147.265625 0)"/>
       <use xlink:href="#DejaVuSans-64" transform="translate(210.644531 0)"/>
       <use xlink:href="#DejaVuSans-61" transform="translate(274.121094 0)"/>
       <use xlink:href="#DejaVuSans-20" transform="translate(335.400391 0)"/>
       <use xlink:href="#DejaVuSans-34" transform="translate(367.1875 0)"/>
      </g>
     </g>
    </g>
   </g>
   <g id="patch_19">
    <path d="M 53.08149 542.64351 
L 53.08149 21.79774 
" style="fill: none; stroke: #000000; stroke-width: 0.8; stroke-linejoin: miter; stroke-linecap: square"/>
   </g>
   <g id="patch_20">
    <path d="M 53.08149 542.64351 
L 372.360446 542.64351 
" style="fill: none; stroke: #000000; stroke-width: 0.8; stroke-linejoin: miter; stroke-linecap: square"/>
   </g>
   <g id="text_13">
    <!-- Armario -->
    <g transform="translate(253.046747 60.692348) scale(0.1 -0.1)">
     <defs>
      <path id="DejaVuSans-41" d="M 2188 4044 
L 1331 1722 
L 3047 1722 
L 2188 4044 
z
M 1831 4666 
L 2547 4666 
L 4325 0 
L 3669 0 
L 3244 1197 
L 1141 1197 
L 716 0 
L 50 0 
L 1831 4666 
z
" transform="scale(0.015625)"/>
      <path id="DejaVuSans-72" d="M 2631 2963 
Q 2534 3019 2420 3045 
Q 2306 3072 2169 3072 
Q 1681 3072 1420 2755 
Q 1159 2438 1159 1844 
L 1159 0 
L 581 0 
L 581 3500 
L 1159 3500 
L 1159 2956 
Q 1341 3275 1631 3429 
Q 1922 3584 2338 3584 
Q 2397 3584 2469 3576 
Q 2541 3569 2628 3553 
L 2631 2963 
z
" transform="scale(0.015625)"/>
      <path id="DejaVuSans-6d" d="M 3328 2828 
Q 3544 3216 3844 3400 
Q 4144 3584 4550 3584 
Q 5097 3584 5394 3201 
Q 5691 2819 5691 2113 
L 5691 0 
L 5113 0 
L 5113 2094 
Q 5113 2597 4934 2840 
Q 4756 3084 4391 3084 
Q 3944 3084 3684 2787 
Q 3425 2491 3425 1978 
L 3425 0 
L 2847 0 
L 2847 2094 
Q 2847 2600 2669 2842 
Q 2491 3084 2119 3084 
Q 1678 3084 1418 2786 
Q 1159 2488 1159 1978 
L 1159 0 
L 581 0 
L 581 3500 
L 1159 3500 
L 1159 2956 
Q 1356 3278 1631 3431 
Q 1906 3584 2284 3584 
Q 2666 3584 2933 3390 
Q 3200 3197 3328 2828 
z
" transform="scale(0.015625)"/>
      <path id="DejaVuSans-6f" d="M 1959 3097 
Q 1497 3097 1228 2736 
Q 959 2375 959 1747 
Q 959 1119 1226 758 
Q 1494 397 1959 397 
Q 2419 397 2687 759 
Q 2956 1122 2956 1747 
Q 2956 2369 2687 2733 
Q 2419 3097 1959 3097 
z
M 1959 3584 
Q 2709 3584 3137 3096 
Q 3566 2609 3566 1747 
Q 3566 888 3137 398 
Q 2709 -91 1959 -91 
Q 1206 -91 779 398 
Q 353 888 353 1747 
Q 353 2609 779 3096 
Q 1206 3584 1959 3584 
z
" transform="scale(0.015625)"/>
     </defs>
     <use xlink:href="#DejaVuSans-41"/>
     <use xlink:href="#DejaVuSans-72" transform="translate(68.408203 0)"/>
     <use xlink:href="#DejaVuSans-6d" transform="translate(107.771484 0)"/>
     <use xlink:href="#DejaVuSans-61" transform="translate(205.183594 0)"/>
     <use xlink:href="#DejaVuSans-72" transform="translate(266.462891 0)"/>
     <use xlink:href="#DejaVuSans-69" transform="translate(307.576172 0)"/>
     <use xlink:href="#DejaVuSans-6f" transform="translate(335.359375 0)"/>
    </g>
   </g>
   <g id="text_14">
    <!-- Iniciando en programación -->
    <g transform="translate(367.483648 185.496599) scale(0.1 -0.1)">
     <defs>
      <path id="DejaVuSans-49" d="M 628 4666 
L 1259 4666 
L 1259 0 
L 628 0 
L 628 4666 
z
" transform="scale(0.015625)"/>
      <path id="DejaVuSans-63" d="M 3122 3366 
L 3122 2828 
Q 2878 2963 2633 3030 
Q 2388 3097 2138 3097 
Q 1578 3097 1268 2742 
Q 959 2388 959 1747 
Q 959 1106 1268 751 
Q 1578 397 2138 397 
Q 2388 397 2633 464 
Q 2878 531 3122 666 
L 3122 134 
Q 2881 22 2623 -34 
Q 2366 -91 2075 -91 
Q 1284 -91 818 406 
Q 353 903 353 1747 
Q 353 2603 823 3093 
Q 1294 3584 2113 3584 
Q 2378 3584 2631 3529 
Q 2884 3475 3122 3366 
z
" transform="scale(0.015625)"/>
      <path id="DejaVuSans-70" d="M 1159 525 
L 1159 -1331 
L 581 -1331 
L 581 3500 
L 1159 3500 
L 1159 2969 
Q 1341 3281 1617 3432 
Q 1894 3584 2278 3584 
Q 2916 3584 3314 3078 
Q 3713 2572 3713 1747 
Q 3713 922 3314 415 
Q 2916 -91 2278 -91 
Q 1894 -91 1617 61 
Q 1341 213 1159 525 
z
M 3116 1747 
Q 3116 2381 2855 2742 
Q 2594 3103 2138 3103 
Q 1681 3103 1420 2742 
Q 1159 2381 1159 1747 
Q 1159 1113 1420 752 
Q 1681 391 2138 391 
Q 2594 391 2855 752 
Q 3116 1113 3116 1747 
z
" transform="scale(0.015625)"/>
      <path id="DejaVuSans-67" d="M 2906 1791 
Q 2906 2416 2648 2759 
Q 2391 3103 1925 3103 
Q 1463 3103 1205 2759 
Q 947 2416 947 1791 
Q 947 1169 1205 825 
Q 1463 481 1925 481 
Q 2391 481 2648 825 
Q 2906 1169 2906 1791 
z
M 3481 434 
Q 3481 -459 3084 -895 
Q 2688 -1331 1869 -1331 
Q 1566 -1331 1297 -1286 
Q 1028 -1241 775 -1147 
L 775 -588 
Q 1028 -725 1275 -790 
Q 1522 -856 1778 -856 
Q 2344 -856 2625 -561 
Q 2906 -266 2906 331 
L 2906 616 
Q 2728 306 2450 153 
Q 2172 0 1784 0 
Q 1141 0 747 490 
Q 353 981 353 1791 
Q 353 2603 747 3093 
Q 1141 3584 1784 3584 
Q 2172 3584 2450 3431 
Q 2728 3278 2906 2969 
L 2906 3500 
L 3481 3500 
L 3481 434 
z
" transform="scale(0.015625)"/>
      <path id="DejaVuSans-f3" d="M 1959 3097 
Q 1497 3097 1228 2736 
Q 959 2375 959 1747 
Q 959 1119 1226 758 
Q 1494 397 1959 397 
Q 2419 397 2687 759 
Q 2956 1122 2956 1747 
Q 2956 2369 2687 2733 
Q 2419 3097 1959 3097 
z
M 1959 3584 
Q 2709 3584 3137 3096 
Q 3566 2609 3566 1747 
Q 3566 888 3137 398 
Q 2709 -91 1959 -91 
Q 1206 -91 779 398 
Q 353 888 353 1747 
Q 353 2609 779 3096 
Q 1206 3584 1959 3584 
z
M 2394 5119 
L 3016 5119 
L 1997 3944 
L 1519 3944 
L 2394 5119 
z
" transform="scale(0.015625)"/>
     </defs>
     <use xlink:href="#DejaVuSans-49"/>
     <use xlink:href="#DejaVuSans-6e" transform="translate(29.492188 0)"/>
     <use xlink:href="#DejaVuSans-69" transform="translate(92.871094 0)"/>
     <use xlink:href="#DejaVuSans-63" transform="translate(120.654297 0)"/>
     <use xlink:href="#DejaVuSans-69" transform="translate(175.634766 0)"/>
     <use xlink:href="#DejaVuSans-61" transform="translate(203.417969 0)"/>
     <use xlink:href="#DejaVuSans-6e" transform="translate(264.697266 0)"/>
     <use xlink:href="#DejaVuSans-64" transform="translate(328.076172 0)"/>
     <use xlink:href="#DejaVuSans-6f" transform="translate(391.552734 0)"/>
     <use xlink:href="#DejaVuSans-20" transform="translate(452.734375 0)"/>
     <use xlink:href="#DejaVuSans-65" transform="translate(484.521484 0)"/>
     <use xlink:href="#DejaVuSans-6e" transform="translate(546.044922 0)"/>
     <use xlink:href="#DejaVuSans-20" transform="translate(609.423828 0)"/>
     <use xlink:href="#DejaVuSans-70" transform="translate(641.210938 0)"/>
     <use xlink:href="#DejaVuSans-72" transform="translate(704.6875 0)"/>
     <use xlink:href="#DejaVuSans-6f" transform="translate(743.550781 0)"/>
     <use xlink:href="#DejaVuSans-67" transform="translate(804.732422 0)"/>
     <use xlink:href="#DejaVuSans-72" transform="translate(868.208984 0)"/>
     <use xlink:href="#DejaVuSans-61" transform="translate(909.322266 0)"/>
     <use xlink:href="#DejaVuSans-6d" transform="translate(970.601562 0)"/>
     <use xlink:href="#DejaVuSans-61" transform="translate(1068.013672 0)"/>
     <use xlink:href="#DejaVuSans-63" transform="translate(1129.292969 0)"/>
     <use xlink:href="#DejaVuSans-69" transform="translate(1184.273438 0)"/>
     <use xlink:href="#DejaVuSans-f3" transform="translate(1212.056641 0)"/>
     <use xlink:href="#DejaVuSans-6e" transform="translate(1273.238281 0)"/>
    </g>
   </g>
   <g id="text_15">
    <!-- Kit de bancas -->
    <g transform="translate(184.384606 309.90085) scale(0.1 -0.1)">
     <defs>
      <path id="DejaVuSans-4b" d="M 628 4666 
L 1259 4666 
L 1259 2694 
L 3353 4666 
L 4166 4666 
L 1850 2491 
L 4331 0 
L 3500 0 
L 1259 2247 
L 1259 0 
L 628 0 
L 628 4666 
z
" transform="scale(0.015625)"/>
      <path id="DejaVuSans-74" d="M 1172 4494 
L 1172 3500 
L 2356 3500 
L 2356 3053 
L 1172 3053 
L 1172 1153 
Q 1172 725 1289 603 
Q 1406 481 1766 481 
L 2356 481 
L 2356 0 
L 1766 0 
Q 1100 0 847 248 
Q 594 497 594 1153 
L 594 3053 
L 172 3053 
L 172 3500 
L 594 3500 
L 594 4494 
L 1172 4494 
z
" transform="scale(0.015625)"/>
      <path id="DejaVuSans-62" d="M 3116 1747 
Q 3116 2381 2855 2742 
Q 2594 3103 2138 3103 
Q 1681 3103 1420 2742 
Q 1159 2381 1159 1747 
Q 1159 1113 1420 752 
Q 1681 391 2138 391 
Q 2594 391 2855 752 
Q 3116 1113 3116 1747 
z
M 1159 2969 
Q 1341 3281 1617 3432 
Q 1894 3584 2278 3584 
Q 2916 3584 3314 3078 
Q 3713 2572 3713 1747 
Q 3713 922 3314 415 
Q 2916 -91 2278 -91 
Q 1894 -91 1617 61 
Q 1341 213 1159 525 
L 1159 0 
L 581 0 
L 581 4863 
L 1159 4863 
L 1159 2969 
z
" transform="scale(0.015625)"/>
     </defs>
     <use xlink:href="#DejaVuSans-4b"/>
     <use xlink:href="#DejaVuSans-69" transform="translate(65.576172 0)"/>
     <use xlink:href="#DejaVuSans-74" transform="translate(93.359375 0)"/>
     <use xlink:href="#DejaVuSans-20" transform="translate(132.568359 0)"/>
     <use xlink:href="#DejaVuSans-64" transform="translate(164.355469 0)"/>
     <use xlink:href="#DejaVuSans-65" transform="translate(227.832031 0)"/>
     <use xlink:href="#DejaVuSans-20" transform="translate(289.355469 0)"/>
     <use xlink:href="#DejaVuSans-62" transform="translate(321.142578 0)"/>
     <use xlink:href="#DejaVuSans-61" transform="translate(384.619141 0)"/>
     <use xlink:href="#DejaVuSans-6e" transform="translate(445.898438 0)"/>
     <use xlink:href="#DejaVuSans-63" transform="translate(509.277344 0)"/>
     <use xlink:href="#DejaVuSans-61" transform="translate(564.257812 0)"/>
     <use xlink:href="#DejaVuSans-73" transform="translate(625.537109 0)"/>
    </g>
   </g>
   <g id="text_16">
    <!-- Cama box -->
    <g transform="translate(298.821507 434.505101) scale(0.1 -0.1)">
     <defs>
      <path id="DejaVuSans-43" d="M 4122 4306 
L 4122 3641 
Q 3803 3938 3442 4084 
Q 3081 4231 2675 4231 
Q 1875 4231 1450 3742 
Q 1025 3253 1025 2328 
Q 1025 1406 1450 917 
Q 1875 428 2675 428 
Q 3081 428 3442 575 
Q 3803 722 4122 1019 
L 4122 359 
Q 3791 134 3420 21 
Q 3050 -91 2638 -91 
Q 1578 -91 968 557 
Q 359 1206 359 2328 
Q 359 3453 968 4101 
Q 1578 4750 2638 4750 
Q 3056 4750 3426 4639 
Q 3797 4528 4122 4306 
z
" transform="scale(0.015625)"/>
      <path id="DejaVuSans-78" d="M 3513 3500 
L 2247 1797 
L 3578 0 
L 2900 0 
L 1881 1375 
L 863 0 
L 184 0 
L 1544 1831 
L 300 3500 
L 978 3500 
L 1906 2253 
L 2834 3500 
L 3513 3500 
z
" transform="scale(0.015625)"/>
     </defs>
     <use xlink:href="#DejaVuSans-43"/>
     <use xlink:href="#DejaVuSans-61" transform="translate(69.824219 0)"/>
     <use xlink:href="#DejaVuSans-6d" transform="translate(131.103516 0)"/>
     <use xlink:href="#DejaVuSans-61" transform="translate(228.515625 0)"/>
     <use xlink:href="#DejaVuSans-20" transform="translate(289.794922 0)"/>
     <use xlink:href="#DejaVuSans-62" transform="translate(321.582031 0)"/>
     <use xlink:href="#DejaVuSans-6f" transform="translate(385.058594 0)"/>
     <use xlink:href="#DejaVuSans-78" transform="translate(443.115234 0)"/>
    </g>
   </g>
   <g id="text_17">
    <!-- TV LED UHD 4K -->
    <g transform="translate(253.046747 85.613198) scale(0.1 -0.1)">
     <defs>
      <path id="DejaVuSans-56" d="M 1831 0 
L 50 4666 
L 709 4666 
L 2188 738 
L 3669 4666 
L 4325 4666 
L 2547 0 
L 1831 0 
z
" transform="scale(0.015625)"/>
      <path id="DejaVuSans-4c" d="M 628 4666 
L 1259 4666 
L 1259 531 
L 3531 531 
L 3531 0 
L 628 0 
L 628 4666 
z
" transform="scale(0.015625)"/>
      <path id="DejaVuSans-45" d="M 628 4666 
L 3578 4666 
L 3578 4134 
L 1259 4134 
L 1259 2753 
L 3481 2753 
L 3481 2222 
L 1259 2222 
L 1259 531 
L 3634 531 
L 3634 0 
L 628 0 
L 628 4666 
z
" transform="scale(0.015625)"/>
      <path id="DejaVuSans-44" d="M 1259 4147 
L 1259 519 
L 2022 519 
Q 2988 519 3436 956 
Q 3884 1394 3884 2338 
Q 3884 3275 3436 3711 
Q 2988 4147 2022 4147 
L 1259 4147 
z
M 628 4666 
L 1925 4666 
Q 3281 4666 3915 4102 
Q 4550 3538 4550 2338 
Q 4550 1131 3912 565 
Q 3275 0 1925 0 
L 628 0 
L 628 4666 
z
" transform="scale(0.015625)"/>
      <path id="DejaVuSans-48" d="M 628 4666 
L 1259 4666 
L 1259 2753 
L 3553 2753 
L 3553 4666 
L 4184 4666 
L 4184 0 
L 3553 0 
L 3553 2222 
L 1259 2222 
L 1259 0 
L 628 0 
L 628 4666 
z
" transform="scale(0.015625)"/>
     </defs>
     <use xlink:href="#DejaVuSans-54"/>
     <use xlink:href="#DejaVuSans-56" transform="translate(61.083984 0)"/>
     <use xlink:href="#DejaVuSans-20" transform="translate(129.492188 0)"/>
     <use xlink:href="#DejaVuSans-4c" transform="translate(161.279297 0)"/>
     <use xlink:href="#DejaVuSans-45" transform="translate(216.992188 0)"/>
     <use xlink:href="#DejaVuSans-44" transform="translate(280.175781 0)"/>
     <use xlink:href="#DejaVuSans-20" transform="translate(357.177734 0)"/>
     <use xlink:href="#DejaVuSans-55" transform="translate(388.964844 0)"/>
     <use xlink:href="#DejaVuSans-48" transform="translate(462.158203 0)"/>
     <use xlink:href="#DejaVuSans-44" transform="translate(537.353516 0)"/>
     <use xlink:href="#DejaVuSans-20" transform="translate(614.355469 0)"/>
     <use xlink:href="#DejaVuSans-34" transform="translate(646.142578 0)"/>
     <use xlink:href="#DejaVuSans-4b" transform="translate(709.765625 0)"/>
    </g>
   </g>
   <g id="text_18">
    <!-- Microondas -->
    <g transform="translate(298.821507 210.217449) scale(0.1 -0.1)">
     <defs>
      <path id="DejaVuSans-4d" d="M 628 4666 
L 1569 4666 
L 2759 1491 
L 3956 4666 
L 4897 4666 
L 4897 0 
L 4281 0 
L 4281 4097 
L 3078 897 
L 2444 897 
L 1241 4097 
L 1241 0 
L 628 0 
L 628 4666 
z
" transform="scale(0.015625)"/>
     </defs>
     <use xlink:href="#DejaVuSans-4d"/>
     <use xlink:href="#DejaVuSans-69" transform="translate(86.279297 0)"/>
     <use xlink:href="#DejaVuSans-63" transform="translate(114.0625 0)"/>
     <use xlink:href="#DejaVuSans-72" transform="translate(169.042969 0)"/>
     <use xlink:href="#DejaVuSans-6f" transform="translate(207.90625 0)"/>
     <use xlink:href="#DejaVuSans-6f" transform="translate(269.087891 0)"/>
     <use xlink:href="#DejaVuSans-6e" transform="translate(330.269531 0)"/>
     <use xlink:href="#DejaVuSans-64" transform="translate(393.648438 0)"/>
     <use xlink:href="#DejaVuSans-61" transform="translate(457.125 0)"/>
     <use xlink:href="#DejaVuSans-73" transform="translate(518.404297 0)"/>
    </g>
   </g>
   <g id="text_19">
    <!-- Mesa de comedor -->
    <g transform="translate(161.497225 334.8217) scale(0.1 -0.1)">
     <use xlink:href="#DejaVuSans-4d"/>
     <use xlink:href="#DejaVuSans-65" transform="translate(86.279297 0)"/>
     <use xlink:href="#DejaVuSans-73" transform="translate(147.802734 0)"/>
     <use xlink:href="#DejaVuSans-61" transform="translate(199.902344 0)"/>
     <use xlink:href="#DejaVuSans-20" transform="translate(261.181641 0)"/>
     <use xlink:href="#DejaVuSans-64" transform="translate(292.96875 0)"/>
     <use xlink:href="#DejaVuSans-65" transform="translate(356.445312 0)"/>
     <use xlink:href="#DejaVuSans-20" transform="translate(417.96875 0)"/>
     <use xlink:href="#DejaVuSans-63" transform="translate(449.755859 0)"/>
     <use xlink:href="#DejaVuSans-6f" transform="translate(504.736328 0)"/>
     <use xlink:href="#DejaVuSans-6d" transform="translate(565.917969 0)"/>
     <use xlink:href="#DejaVuSans-65" transform="translate(663.330078 0)"/>
     <use xlink:href="#DejaVuSans-64" transform="translate(724.853516 0)"/>
     <use xlink:href="#DejaVuSans-6f" transform="translate(788.330078 0)"/>
     <use xlink:href="#DejaVuSans-72" transform="translate(849.511719 0)"/>
    </g>
   </g>
   <g id="text_20">
    <!-- Cubertería -->
    <g transform="translate(230.159366 459.425952) scale(0.1 -0.1)">
     <defs>
      <path id="DejaVuSans-75" d="M 544 1381 
L 544 3500 
L 1119 3500 
L 1119 1403 
Q 1119 906 1312 657 
Q 1506 409 1894 409 
Q 2359 409 2629 706 
Q 2900 1003 2900 1516 
L 2900 3500 
L 3475 3500 
L 3475 0 
L 2900 0 
L 2900 538 
Q 2691 219 2414 64 
Q 2138 -91 1772 -91 
Q 1169 -91 856 284 
Q 544 659 544 1381 
z
M 1991 3584 
L 1991 3584 
z
" transform="scale(0.015625)"/>
      <path id="DejaVuSans-ed" d="M 1325 5119 
L 1947 5119 
L 928 3944 
L 450 3944 
L 1325 5119 
z
M 603 3500 
L 1178 3500 
L 1178 0 
L 603 0 
L 603 3500 
z
M 891 3584 
L 891 3584 
z
" transform="scale(0.015625)"/>
     </defs>
     <use xlink:href="#DejaVuSans-43"/>
     <use xlink:href="#DejaVuSans-75" transform="translate(69.824219 0)"/>
     <use xlink:href="#DejaVuSans-62" transform="translate(133.203125 0)"/>
     <use xlink:href="#DejaVuSans-65" transform="translate(196.679688 0)"/>
     <use xlink:href="#DejaVuSans-72" transform="translate(258.203125 0)"/>
     <use xlink:href="#DejaVuSans-74" transform="translate(299.316406 0)"/>
     <use xlink:href="#DejaVuSans-65" transform="translate(338.525391 0)"/>
     <use xlink:href="#DejaVuSans-72" transform="translate(400.048828 0)"/>
     <use xlink:href="#DejaVuSans-ed" transform="translate(441.162109 0)"/>
     <use xlink:href="#DejaVuSans-61" transform="translate(468.945312 0)"/>
    </g>
   </g>
   <g id="text_21">
    <!-- Microondas -->
    <g transform="translate(253.046747 110.534048) scale(0.1 -0.1)">
     <use xlink:href="#DejaVuSans-4d"/>
     <use xlink:href="#DejaVuSans-69" transform="translate(86.279297 0)"/>
     <use xlink:href="#DejaVuSans-63" transform="translate(114.0625 0)"/>
     <use xlink:href="#DejaVuSans-72" transform="translate(169.042969 0)"/>
     <use xlink:href="#DejaVuSans-6f" transform="translate(207.90625 0)"/>
     <use xlink:href="#DejaVuSans-6f" transform="translate(269.087891 0)"/>
     <use xlink:href="#DejaVuSans-6e" transform="translate(330.269531 0)"/>
     <use xlink:href="#DejaVuSans-64" transform="translate(393.648438 0)"/>
     <use xlink:href="#DejaVuSans-61" transform="translate(457.125 0)"/>
     <use xlink:href="#DejaVuSans-73" transform="translate(518.404297 0)"/>
    </g>
   </g>
   <g id="text_22">
    <!-- Batería -->
    <g transform="translate(275.934127 235.1383) scale(0.1 -0.1)">
     <defs>
      <path id="DejaVuSans-42" d="M 1259 2228 
L 1259 519 
L 2272 519 
Q 2781 519 3026 730 
Q 3272 941 3272 1375 
Q 3272 1813 3026 2020 
Q 2781 2228 2272 2228 
L 1259 2228 
z
M 1259 4147 
L 1259 2741 
L 2194 2741 
Q 2656 2741 2882 2914 
Q 3109 3088 3109 3444 
Q 3109 3797 2882 3972 
Q 2656 4147 2194 4147 
L 1259 4147 
z
M 628 4666 
L 2241 4666 
Q 2963 4666 3353 4366 
Q 3744 4066 3744 3513 
Q 3744 3084 3544 2831 
Q 3344 2578 2956 2516 
Q 3422 2416 3680 2098 
Q 3938 1781 3938 1306 
Q 3938 681 3513 340 
Q 3088 0 2303 0 
L 628 0 
L 628 4666 
z
" transform="scale(0.015625)"/>
     </defs>
     <use xlink:href="#DejaVuSans-42"/>
     <use xlink:href="#DejaVuSans-61" transform="translate(68.603516 0)"/>
     <use xlink:href="#DejaVuSans-74" transform="translate(129.882812 0)"/>
     <use xlink:href="#DejaVuSans-65" transform="translate(169.091797 0)"/>
     <use xlink:href="#DejaVuSans-72" transform="translate(230.615234 0)"/>
     <use xlink:href="#DejaVuSans-ed" transform="translate(271.728516 0)"/>
     <use xlink:href="#DejaVuSans-61" transform="translate(299.511719 0)"/>
    </g>
   </g>
   <g id="text_23">
    <!-- Cama king -->
    <g transform="translate(161.497225 359.742551) scale(0.1 -0.1)">
     <defs>
      <path id="DejaVuSans-6b" d="M 581 4863 
L 1159 4863 
L 1159 1991 
L 2875 3500 
L 3609 3500 
L 1753 1863 
L 3688 0 
L 2938 0 
L 1159 1709 
L 1159 0 
L 581 0 
L 581 4863 
z
" transform="scale(0.015625)"/>
     </defs>
     <use xlink:href="#DejaVuSans-43"/>
     <use xlink:href="#DejaVuSans-61" transform="translate(69.824219 0)"/>
     <use xlink:href="#DejaVuSans-6d" transform="translate(131.103516 0)"/>
     <use xlink:href="#DejaVuSans-61" transform="translate(228.515625 0)"/>
     <use xlink:href="#DejaVuSans-20" transform="translate(289.794922 0)"/>
     <use xlink:href="#DejaVuSans-6b" transform="translate(321.582031 0)"/>
     <use xlink:href="#DejaVuSans-69" transform="translate(379.492188 0)"/>
     <use xlink:href="#DejaVuSans-6e" transform="translate(407.275391 0)"/>
     <use xlink:href="#DejaVuSans-67" transform="translate(470.654297 0)"/>
    </g>
   </g>
   <g id="text_24">
    <!-- Cama king -->
    <g transform="translate(161.497225 484.346802) scale(0.1 -0.1)">
     <use xlink:href="#DejaVuSans-43"/>
     <use xlink:href="#DejaVuSans-61" transform="translate(69.824219 0)"/>
     <use xlink:href="#DejaVuSans-6d" transform="translate(131.103516 0)"/>
     <use xlink:href="#DejaVuSans-61" transform="translate(228.515625 0)"/>
     <use xlink:href="#DejaVuSans-20" transform="translate(289.794922 0)"/>
     <use xlink:href="#DejaVuSans-6b" transform="translate(321.582031 0)"/>
     <use xlink:href="#DejaVuSans-69" transform="translate(379.492188 0)"/>
     <use xlink:href="#DejaVuSans-6e" transform="translate(407.275391 0)"/>
     <use xlink:href="#DejaVuSans-67" transform="translate(470.654297 0)"/>
    </g>
   </g>
   <g id="text_25">
    <!-- Secadora de ropa -->
    <g transform="translate(207.271986 135.454899) scale(0.1 -0.1)">
     <defs>
      <path id="DejaVuSans-53" d="M 3425 4513 
L 3425 3897 
Q 3066 4069 2747 4153 
Q 2428 4238 2131 4238 
Q 1616 4238 1336 4038 
Q 1056 3838 1056 3469 
Q 1056 3159 1242 3001 
Q 1428 2844 1947 2747 
L 2328 2669 
Q 3034 2534 3370 2195 
Q 3706 1856 3706 1288 
Q 3706 609 3251 259 
Q 2797 -91 1919 -91 
Q 1588 -91 1214 -16 
Q 841 59 441 206 
L 441 856 
Q 825 641 1194 531 
Q 1563 422 1919 422 
Q 2459 422 2753 634 
Q 3047 847 3047 1241 
Q 3047 1584 2836 1778 
Q 2625 1972 2144 2069 
L 1759 2144 
Q 1053 2284 737 2584 
Q 422 2884 422 3419 
Q 422 4038 858 4394 
Q 1294 4750 2059 4750 
Q 2388 4750 2728 4690 
Q 3069 4631 3425 4513 
z
" transform="scale(0.015625)"/>
     </defs>
     <use xlink:href="#DejaVuSans-53"/>
     <use xlink:href="#DejaVuSans-65" transform="translate(63.476562 0)"/>
     <use xlink:href="#DejaVuSans-63" transform="translate(125 0)"/>
     <use xlink:href="#DejaVuSans-61" transform="translate(179.980469 0)"/>
     <use xlink:href="#DejaVuSans-64" transform="translate(241.259766 0)"/>
     <use xlink:href="#DejaVuSans-6f" transform="translate(304.736328 0)"/>
     <use xlink:href="#DejaVuSans-72" transform="translate(365.917969 0)"/>
     <use xlink:href="#DejaVuSans-61" transform="translate(407.03125 0)"/>
     <use xlink:href="#DejaVuSans-20" transform="translate(468.310547 0)"/>
     <use xlink:href="#DejaVuSans-64" transform="translate(500.097656 0)"/>
     <use xlink:href="#DejaVuSans-65" transform="translate(563.574219 0)"/>
     <use xlink:href="#DejaVuSans-20" transform="translate(625.097656 0)"/>
     <use xlink:href="#DejaVuSans-72" transform="translate(656.884766 0)"/>
     <use xlink:href="#DejaVuSans-6f" transform="translate(695.748047 0)"/>
     <use xlink:href="#DejaVuSans-70" transform="translate(756.929688 0)"/>
     <use xlink:href="#DejaVuSans-61" transform="translate(820.40625 0)"/>
    </g>
   </g>
   <g id="text_26">
    <!-- Pandereta -->
    <g transform="translate(207.271986 260.05915) scale(0.1 -0.1)">
     <defs>
      <path id="DejaVuSans-50" d="M 1259 4147 
L 1259 2394 
L 2053 2394 
Q 2494 2394 2734 2622 
Q 2975 2850 2975 3272 
Q 2975 3691 2734 3919 
Q 2494 4147 2053 4147 
L 1259 4147 
z
M 628 4666 
L 2053 4666 
Q 2838 4666 3239 4311 
Q 3641 3956 3641 3272 
Q 3641 2581 3239 2228 
Q 2838 1875 2053 1875 
L 1259 1875 
L 1259 0 
L 628 0 
L 628 4666 
z
" transform="scale(0.015625)"/>
     </defs>
     <use xlink:href="#DejaVuSans-50"/>
     <use xlink:href="#DejaVuSans-61" transform="translate(55.802734 0)"/>
     <use xlink:href="#DejaVuSans-6e" transform="translate(117.082031 0)"/>
     <use xlink:href="#DejaVuSans-64" transform="translate(180.460938 0)"/>
     <use xlink:href="#DejaVuSans-65" transform="translate(243.9375 0)"/>
     <use xlink:href="#DejaVuSans-72" transform="translate(305.460938 0)"/>
     <use xlink:href="#DejaVuSans-65" transform="translate(344.324219 0)"/>
     <use xlink:href="#DejaVuSans-74" transform="translate(405.847656 0)"/>
     <use xlink:href="#DejaVuSans-61" transform="translate(445.056641 0)"/>
    </g>
   </g>
   <g id="text_27">
    <!-- Set de ollas -->
    <g transform="translate(138.609845 384.663401) scale(0.1 -0.1)">
     <defs>
      <path id="DejaVuSans-6c" d="M 603 4863 
L 1178 4863 
L 1178 0 
L 603 0 
L 603 4863 
z
" transform="scale(0.015625)"/>
     </defs>
     <use xlink:href="#DejaVuSans-53"/>
     <use xlink:href="#DejaVuSans-65" transform="translate(63.476562 0)"/>
     <use xlink:href="#DejaVuSans-74" transform="translate(125 0)"/>
     <use xlink:href="#DejaVuSans-20" transform="translate(164.208984 0)"/>
     <use xlink:href="#DejaVuSans-64" transform="translate(195.996094 0)"/>
     <use xlink:href="#DejaVuSans-65" transform="translate(259.472656 0)"/>
     <use xlink:href="#DejaVuSans-20" transform="translate(320.996094 0)"/>
     <use xlink:href="#DejaVuSans-6f" transform="translate(352.783203 0)"/>
     <use xlink:href="#DejaVuSans-6c" transform="translate(413.964844 0)"/>
     <use xlink:href="#DejaVuSans-6c" transform="translate(441.748047 0)"/>
     <use xlink:href="#DejaVuSans-61" transform="translate(469.53125 0)"/>
     <use xlink:href="#DejaVuSans-73" transform="translate(530.810547 0)"/>
    </g>
   </g>
   <g id="text_28">
    <!-- Dashboards con Power BI -->
    <g transform="translate(161.497225 509.267652) scale(0.1 -0.1)">
     <defs>
      <path id="DejaVuSans-68" d="M 3513 2113 
L 3513 0 
L 2938 0 
L 2938 2094 
Q 2938 2591 2744 2837 
Q 2550 3084 2163 3084 
Q 1697 3084 1428 2787 
Q 1159 2491 1159 1978 
L 1159 0 
L 581 0 
L 581 4863 
L 1159 4863 
L 1159 2956 
Q 1366 3272 1645 3428 
Q 1925 3584 2291 3584 
Q 2894 3584 3203 3211 
Q 3513 2838 3513 2113 
z
" transform="scale(0.015625)"/>
      <path id="DejaVuSans-77" d="M 269 3500 
L 844 3500 
L 1563 769 
L 2278 3500 
L 2956 3500 
L 3675 769 
L 4391 3500 
L 4966 3500 
L 4050 0 
L 3372 0 
L 2619 2869 
L 1863 0 
L 1184 0 
L 269 3500 
z
" transform="scale(0.015625)"/>
     </defs>
     <use xlink:href="#DejaVuSans-44"/>
     <use xlink:href="#DejaVuSans-61" transform="translate(77.001953 0)"/>
     <use xlink:href="#DejaVuSans-73" transform="translate(138.28125 0)"/>
     <use xlink:href="#DejaVuSans-68" transform="translate(190.380859 0)"/>
     <use xlink:href="#DejaVuSans-62" transform="translate(253.759766 0)"/>
     <use xlink:href="#DejaVuSans-6f" transform="translate(317.236328 0)"/>
     <use xlink:href="#DejaVuSans-61" transform="translate(378.417969 0)"/>
     <use xlink:href="#DejaVuSans-72" transform="translate(439.697266 0)"/>
     <use xlink:href="#DejaVuSans-64" transform="translate(479.060547 0)"/>
     <use xlink:href="#DejaVuSans-73" transform="translate(542.537109 0)"/>
     <use xlink:href="#DejaVuSans-20" transform="translate(594.636719 0)"/>
     <use xlink:href="#DejaVuSans-63" transform="translate(626.423828 0)"/>
     <use xlink:href="#DejaVuSans-6f" transform="translate(681.404297 0)"/>
     <use xlink:href="#DejaVuSans-6e" transform="translate(742.585938 0)"/>
     <use xlink:href="#DejaVuSans-20" transform="translate(805.964844 0)"/>
     <use xlink:href="#DejaVuSans-50" transform="translate(837.751953 0)"/>
     <use xlink:href="#DejaVuSans-6f" transform="translate(894.429688 0)"/>
     <use xlink:href="#DejaVuSans-77" transform="translate(955.611328 0)"/>
     <use xlink:href="#DejaVuSans-65" transform="translate(1037.398438 0)"/>
     <use xlink:href="#DejaVuSans-72" transform="translate(1098.921875 0)"/>
     <use xlink:href="#DejaVuSans-20" transform="translate(1140.035156 0)"/>
     <use xlink:href="#DejaVuSans-42" transform="translate(1171.822266 0)"/>
     <use xlink:href="#DejaVuSans-49" transform="translate(1240.425781 0)"/>
    </g>
   </g>
   <g id="text_29">
    <!-- Lo que más se vende en cada tienda -->
    <g transform="translate(65.350968 15.79774) scale(0.16 -0.16)">
     <defs>
      <path id="DejaVuSans-71" d="M 947 1747 
Q 947 1113 1208 752 
Q 1469 391 1925 391 
Q 2381 391 2643 752 
Q 2906 1113 2906 1747 
Q 2906 2381 2643 2742 
Q 2381 3103 1925 3103 
Q 1469 3103 1208 2742 
Q 947 2381 947 1747 
z
M 2906 525 
Q 2725 213 2448 61 
Q 2172 -91 1784 -91 
Q 1150 -91 751 415 
Q 353 922 353 1747 
Q 353 2572 751 3078 
Q 1150 3584 1784 3584 
Q 2172 3584 2448 3432 
Q 2725 3281 2906 2969 
L 2906 3500 
L 3481 3500 
L 3481 -1331 
L 2906 -1331 
L 2906 525 
z
" transform="scale(0.015625)"/>
      <path id="DejaVuSans-e1" d="M 2194 1759 
Q 1497 1759 1228 1600 
Q 959 1441 959 1056 
Q 959 750 1161 570 
Q 1363 391 1709 391 
Q 2188 391 2477 730 
Q 2766 1069 2766 1631 
L 2766 1759 
L 2194 1759 
z
M 3341 1997 
L 3341 0 
L 2766 0 
L 2766 531 
Q 2569 213 2275 61 
Q 1981 -91 1556 -91 
Q 1019 -91 701 211 
Q 384 513 384 1019 
Q 384 1609 779 1909 
Q 1175 2209 1959 2209 
L 2766 2209 
L 2766 2266 
Q 2766 2663 2505 2880 
Q 2244 3097 1772 3097 
Q 1472 3097 1187 3025 
Q 903 2953 641 2809 
L 641 3341 
Q 956 3463 1253 3523 
Q 1550 3584 1831 3584 
Q 2591 3584 2966 3190 
Q 3341 2797 3341 1997 
z
M 2291 5119 
L 2913 5119 
L 1894 3944 
L 1416 3944 
L 2291 5119 
z
" transform="scale(0.015625)"/>
     </defs>
     <use xlink:href="#DejaVuSans-4c"/>
     <use xlink:href="#DejaVuSans-6f" transform="translate(53.962891 0)"/>
     <use xlink:href="#DejaVuSans-20" transform="translate(115.144531 0)"/>
     <use xlink:href="#DejaVuSans-71" transform="translate(146.931641 0)"/>
     <use xlink:href="#DejaVuSans-75" transform="translate(210.408203 0)"/>
     <use xlink:href="#DejaVuSans-65" transform="translate(273.787109 0)"/>
     <use xlink:href="#DejaVuSans-20" transform="translate(335.310547 0)"/>
     <use xlink:href="#DejaVuSans-6d" transform="translate(367.097656 0)"/>
     <use xlink:href="#DejaVuSans-e1" transform="translate(464.509766 0)"/>
     <use xlink:href="#DejaVuSans-73" transform="translate(525.789062 0)"/>
     <use xlink:href="#DejaVuSans-20" transform="translate(577.888672 0)"/>
     <use xlink:href="#DejaVuSans-73" transform="translate(609.675781 0)"/>
     <use xlink:href="#DejaVuSans-65" transform="translate(661.775391 0)"/>
     <use xlink:href="#DejaVuSans-20" transform="translate(723.298828 0)"/>
     <use xlink:href="#DejaVuSans-76" transform="translate(755.085938 0)"/>
     <use xlink:href="#DejaVuSans-65" transform="translate(814.265625 0)"/>
     <use xlink:href="#DejaVuSans-6e" transform="translate(875.789062 0)"/>
     <use xlink:href="#DejaVuSans-64" transform="translate(939.167969 0)"/>
     <use xlink:href="#DejaVuSans-65" transform="translate(1002.644531 0)"/>
     <use xlink:href="#DejaVuSans-20" transform="translate(1064.167969 0)"/>
     <use xlink:href="#DejaVuSans-65" transform="translate(1095.955078 0)"/>
     <use xlink:href="#DejaVuSans-6e" transform="translate(1157.478516 0)"/>
     <use xlink:href="#DejaVuSans-20" transform="translate(1220.857422 0)"/>
     <use xlink:href="#DejaVuSans-63" transform="translate(1252.644531 0)"/>
     <use xlink:href="#DejaVuSans-61" transform="translate(1307.625 0)"/>
     <use xlink:href="#DejaVuSans-64" transform="translate(1368.904297 0)"/>
     <use xlink:href="#DejaVuSans-61" transform="translate(1432.380859 0)"/>
     <use xlink:href="#DejaVuSans-20" transform="translate(1493.660156 0)"/>
     <use xlink:href="#DejaVuSans-74" transform="translate(1525.447266 0)"/>
     <use xlink:href="#DejaVuSans-69" transform="translate(1564.65625 0)"/>
     <use xlink:href="#DejaVuSans-65" transform="translate(1592.439453 0)"/>
     <use xlink:href="#DejaVuSans-6e" transform="translate(1653.962891 0)"/>
     <use xlink:href="#DejaVuSans-64" transform="translate(1717.341797 0)"/>
     <use xlink:href="#DejaVuSans-61" transform="translate(1780.818359 0)"/>
    </g>
   </g>
  </g>
 </g>
 <defs>
  <clipPath id="pe30449163f">
   <rect x="53.08149" y="21.79774" width="319.278956" height="520.84577"/>
  </clipPath>
 </defs>
</svg>
